<svg width="145" height="24" viewBox="0 0 145 24" fill="none" xmlns="http://www.w3.org/2000/svg">
<g clip-path="url(#clip0_325_303)">
<path d="M39 17.27L44.17 20.39C44.55 20.62 45.02 20.28 44.92 19.85L43.55 13.97L48.11 10.02C48.44 9.72997 48.27 9.17997 47.82 9.13997L41.81 8.62997L39.46 3.08997C39.29 2.67997 38.71 2.67997 38.54 3.08997L36.19 8.62997L30.18 9.13997C29.74 9.17997 29.56 9.72997 29.9 10.02L34.46 13.97L33.09 19.85C32.99 20.28 33.46 20.62 33.84 20.39L39 17.27Z" fill="#323232"/>
</g>
<g clip-path="url(#clip1_325_303)">
<path d="M63 17.27L68.17 20.39C68.55 20.62 69.02 20.28 68.92 19.85L67.55 13.97L72.11 10.02C72.44 9.72997 72.27 9.17997 71.82 9.13997L65.81 8.62997L63.46 3.08997C63.29 2.67997 62.71 2.67997 62.54 3.08997L60.19 8.62997L54.18 9.13997C53.74 9.17997 53.56 9.72997 53.9 10.02L58.46 13.97L57.09 19.85C56.99 20.28 57.46 20.62 57.84 20.39L63 17.27Z" fill="#323232"/>
</g>
<g clip-path="url(#clip2_325_303)">
<path d="M87 17.27L92.17 20.39C92.55 20.62 93.02 20.28 92.92 19.85L91.55 13.97L96.11 10.02C96.44 9.72997 96.27 9.17997 95.82 9.13997L89.81 8.62997L87.46 3.08997C87.29 2.67997 86.71 2.67997 86.54 3.08997L84.19 8.62997L78.18 9.13997C77.74 9.17997 77.56 9.72997 77.9 10.02L82.46 13.97L81.09 19.85C80.99 20.28 81.46 20.62 81.84 20.39L87 17.27Z" fill="#323232"/>
</g>
<g clip-path="url(#clip3_325_303)">
<path d="M103.09 19.85L103.576 19.9632C103.576 19.9641 103.576 19.9651 103.576 19.966C103.576 19.9677 103.576 19.9675 103.577 19.9645L103.576 19.963L103.09 19.85ZM103.09 19.85C102.99 20.28 103.46 20.62 103.84 20.39L109 17.27L100.222 9.63838C100.221 9.63856 100.22 9.63871 100.22 9.63871C100.22 9.63871 100.221 9.63865 100.221 9.63851C100.221 9.63841 100.221 9.63829 100.222 9.63816C100.221 9.63726 100.221 9.63644 100.221 9.6358C100.22 9.63546 100.22 9.63532 100.22 9.63535C100.22 9.63542 100.221 9.63617 100.222 9.63752L100.18 9.13997M103.09 19.85L104.46 13.97L99.9 10.02C99.56 9.72997 99.74 9.17997 100.18 9.13997M100.18 9.13997L100.225 9.63582M100.18 9.13997L106.19 8.62997L108.54 3.08997C108.71 2.67997 109.29 2.67997 109.46 3.08997L100.225 9.63582M100.225 9.63582C100.225 9.63572 100.225 9.63566 100.225 9.63567C100.225 9.63567 100.225 9.63574 100.225 9.63588L100.225 9.63582ZM109.258 16.8419L109 16.6858L108.741 16.8421L103.581 19.9621L103.581 19.9622C103.58 19.9626 103.58 19.9629 103.579 19.9632C103.579 19.9629 103.578 19.9625 103.577 19.962C103.577 19.9619 103.577 19.9619 103.577 19.9618L104.947 14.0834L105.015 13.7896L104.787 13.592L100.227 9.64204L100.227 9.64203L100.224 9.63955C100.224 9.6393 100.224 9.63907 100.224 9.63884C100.224 9.63856 100.224 9.6383 100.224 9.63806C100.224 9.63803 100.224 9.63801 100.225 9.63799L106.232 9.12818L106.533 9.1027L106.65 8.82522L109 3.28593L111.35 8.82522L111.467 9.1027L111.768 9.12818L117.776 9.63801C117.776 9.63802 117.776 9.63804 117.776 9.63806C117.778 9.63826 117.78 9.63852 117.781 9.63876C117.781 9.63894 117.781 9.63913 117.782 9.63933C117.782 9.64053 117.782 9.64152 117.782 9.64227C117.782 9.64272 117.781 9.64324 117.781 9.64385C117.78 9.64402 117.78 9.6442 117.78 9.64439L113.223 13.592L112.995 13.7896L113.063 14.0834L114.433 19.9618C114.433 19.9619 114.433 19.9619 114.432 19.962C114.432 19.9625 114.431 19.9629 114.431 19.9632C114.43 19.9629 114.43 19.9626 114.429 19.9622L114.428 19.9619L109.258 16.8419ZM103.577 19.9634C103.577 19.9633 103.577 19.9633 103.577 19.9632L103.577 19.9634Z" fill="#F5F5F5" stroke="black"/>
</g>
<g clip-path="url(#clip4_325_303)">
<path d="M127.09 19.85L127.576 19.9632C127.576 19.9641 127.576 19.9651 127.576 19.966C127.576 19.9677 127.576 19.9675 127.577 19.9645L127.576 19.963L127.09 19.85ZM127.09 19.85C126.99 20.28 127.46 20.62 127.84 20.39L133 17.27L124.222 9.63838C124.221 9.63856 124.22 9.63871 124.22 9.63871C124.22 9.63871 124.221 9.63865 124.221 9.63851C124.221 9.63841 124.221 9.63829 124.222 9.63816C124.221 9.63726 124.221 9.63644 124.221 9.6358C124.22 9.63546 124.22 9.63532 124.22 9.63535C124.22 9.63542 124.221 9.63617 124.222 9.63752L124.18 9.13997M127.09 19.85L128.46 13.97L123.9 10.02C123.56 9.72997 123.74 9.17997 124.18 9.13997M124.18 9.13997L124.225 9.63582M124.18 9.13997L130.19 8.62997L132.54 3.08997C132.71 2.67997 133.29 2.67997 133.46 3.08997L124.225 9.63582M124.225 9.63582C124.225 9.63572 124.225 9.63566 124.225 9.63567C124.225 9.63567 124.225 9.63574 124.225 9.63588L124.225 9.63582ZM133.258 16.8419L133 16.6858L132.741 16.8421L127.581 19.9621L127.581 19.9622C127.58 19.9626 127.58 19.9629 127.579 19.9632C127.579 19.9629 127.578 19.9625 127.577 19.962C127.577 19.9619 127.577 19.9619 127.577 19.9618L128.947 14.0834L129.015 13.7896L128.787 13.592L124.227 9.64204L124.227 9.64203L124.224 9.63955C124.224 9.6393 124.224 9.63907 124.224 9.63884C124.224 9.63856 124.224 9.6383 124.224 9.63806C124.224 9.63803 124.224 9.63801 124.225 9.63799L130.232 9.12818L130.533 9.1027L130.65 8.82522L133 3.28593L135.35 8.82522L135.467 9.1027L135.768 9.12818L141.776 9.63801C141.776 9.63802 141.776 9.63804 141.776 9.63806C141.778 9.63826 141.78 9.63852 141.781 9.63876C141.781 9.63894 141.781 9.63913 141.782 9.63933C141.782 9.64053 141.782 9.64152 141.782 9.64227C141.782 9.64272 141.781 9.64324 141.781 9.64385C141.78 9.64402 141.78 9.6442 141.78 9.64439L137.223 13.592L136.995 13.7896L137.063 14.0834L138.433 19.9618C138.433 19.9619 138.433 19.9619 138.432 19.962C138.432 19.9625 138.431 19.9629 138.431 19.9632C138.43 19.9629 138.43 19.9626 138.429 19.9622L138.428 19.9619L133.258 16.8419ZM127.577 19.9634C127.577 19.9633 127.577 19.9633 127.577 19.9632L127.577 19.9634Z" fill="#F5F5F5" stroke="black"/>
</g>
<path d="M5.39844 10.0469C5.39844 9.25521 4.99219 8.85938 4.17969 8.85938C3.82031 8.85938 3.38542 8.97135 2.875 9.19531C2.36979 9.41406 2.07812 9.52344 2 9.52344C1.6875 9.52344 1.53125 9.38281 1.53125 9.10156C1.53125 8.66927 1.84375 8.30208 2.46875 8C3.09375 7.69792 3.80729 7.54688 4.60938 7.54688C6.24479 7.54688 7.0651 8.18229 7.07031 9.45312C7.07031 10.1875 6.82292 10.888 6.32812 11.5547C6.30729 11.5807 6.21094 11.6979 6.03906 11.9062C5.8724 12.1146 5.78906 12.237 5.78906 12.2734C5.78906 12.3724 5.94531 12.526 6.25781 12.7344C6.57552 12.9427 6.85938 13.2344 7.10938 13.6094C7.35938 13.9844 7.48438 14.4427 7.48438 14.9844C7.48438 16.0365 7.09896 16.8646 6.32812 17.4688C5.55729 18.0729 4.63802 18.375 3.57031 18.375C2.8724 18.375 2.25781 18.2318 1.72656 17.9453C1.19531 17.6589 0.929688 17.3333 0.929688 16.9688C0.929688 16.6042 1.10156 16.4219 1.44531 16.4219C1.6276 16.4219 1.96094 16.5312 2.44531 16.75C2.92969 16.9635 3.41146 17.0703 3.89062 17.0703C4.375 17.0703 4.8099 16.8984 5.19531 16.5547C5.58073 16.2057 5.77344 15.7526 5.77344 15.1953C5.77344 14.1797 5.20312 13.5365 4.0625 13.2656C3.73438 13.1875 3.53646 13.1328 3.46875 13.1016C3.24479 12.9974 3.13281 12.8229 3.13281 12.5781C3.13281 12.4167 3.35417 12.2266 3.79688 12.0078C4.24479 11.7891 4.58333 11.5547 4.8125 11.3047C5.20312 10.8724 5.39844 10.4531 5.39844 10.0469ZM10.5078 18.125H10.2656C10.0052 18.125 9.80208 18.0651 9.65625 17.9453C9.51562 17.8255 9.44531 17.6667 9.44531 17.4688C9.4349 17.4271 9.42969 17.3932 9.42969 17.3672L9.41406 17.2344V17.0938L9.42188 17.0625V16.9922C9.43229 16.9505 9.4375 16.9167 9.4375 16.8906C9.4375 16.6562 9.51562 16.474 9.67188 16.3438C9.83333 16.2083 10.0104 16.1406 10.2031 16.1406L10.3672 16.1172H10.5781C11.1458 16.1172 11.4297 16.4141 11.4297 17.0078V17.1172L11.3984 17.3828C11.3984 17.6224 11.3073 17.8073 11.125 17.9375C10.9479 18.0625 10.7422 18.125 10.5078 18.125ZM19.2188 12.5938V12.1172C19.2188 11.0807 19.0573 10.2396 18.7344 9.59375C18.4115 8.95312 17.9453 8.63281 17.3359 8.63281H17.3203C16.9766 8.63281 16.6536 8.72656 16.3516 8.91406C16.0547 9.09635 15.8125 9.35417 15.625 9.6875C15.1354 10.5521 14.8906 11.5677 14.8906 12.7344L14.875 12.9766L14.8672 13.3281V13.4531C14.8672 15.1771 15.2396 16.2995 15.9844 16.8203C16.2135 16.9818 16.4922 17.0625 16.8203 17.0625L16.9219 17.0547H17.0234C17.2891 17.0547 17.5703 16.9427 17.8672 16.7188C18.1641 16.4948 18.4036 16.1927 18.5859 15.8125C19.0078 14.9323 19.2188 13.8594 19.2188 12.5938ZM17.2031 7.54688H17.5078C18.5078 7.54688 19.3359 7.96094 19.9922 8.78906C20.2786 9.15885 20.5052 9.65104 20.6719 10.2656C20.8385 10.875 20.9219 11.5573 20.9219 12.3125V12.4688C20.9219 13.2865 20.8255 14.0521 20.6328 14.7656C20.2422 16.2135 19.5312 17.2083 18.5 17.75C17.9792 18.026 17.4193 18.1641 16.8203 18.1641H16.6641C15.6016 18.1641 14.7604 17.7135 14.1406 16.8125C13.5833 16.0104 13.3047 14.8229 13.3047 13.25C13.3047 13.2292 13.3047 13.2083 13.3047 13.1875C13.3047 12.4531 13.3906 11.737 13.5625 11.0391C13.9271 9.54427 14.6302 8.51823 15.6719 7.96094C16.1927 7.6849 16.7031 7.54688 17.2031 7.54688Z" fill="black"/>
<defs>
<clipPath id="clip0_325_303">
<rect x="27" width="24" height="24" rx="12" fill="white"/>
</clipPath>
<clipPath id="clip1_325_303">
<rect x="51" width="24" height="24" rx="12" fill="white"/>
</clipPath>
<clipPath id="clip2_325_303">
<rect x="75" width="24" height="24" rx="12" fill="white"/>
</clipPath>
<clipPath id="clip3_325_303">
<rect x="97" width="24" height="24" rx="12" fill="white"/>
</clipPath>
<clipPath id="clip4_325_303">
<rect x="121" width="24" height="24" rx="12" fill="white"/>
</clipPath>
</defs>
</svg>
