<svg width="145" height="24" viewBox="0 0 145 24" fill="none" xmlns="http://www.w3.org/2000/svg">
<g clip-path="url(#clip0_325_316)">
<path d="M39 17.27L44.17 20.39C44.55 20.62 45.02 20.28 44.92 19.85L43.55 13.97L48.11 10.02C48.44 9.72997 48.27 9.17997 47.82 9.13997L41.81 8.62997L39.46 3.08997C39.29 2.67997 38.71 2.67997 38.54 3.08997L36.19 8.62997L30.18 9.13997C29.74 9.17997 29.56 9.72997 29.9 10.02L34.46 13.97L33.09 19.85C32.99 20.28 33.46 20.62 33.84 20.39L39 17.27Z" fill="#323232"/>
</g>
<g clip-path="url(#clip1_325_316)">
<path d="M63 17.27L68.17 20.39C68.55 20.62 69.02 20.28 68.92 19.85L67.55 13.97L72.11 10.02C72.44 9.72997 72.27 9.17997 71.82 9.13997L65.81 8.62997L63.46 3.08997C63.29 2.67997 62.71 2.67997 62.54 3.08997L60.19 8.62997L54.18 9.13997C53.74 9.17997 53.56 9.72997 53.9 10.02L58.46 13.97L57.09 19.85C56.99 20.28 57.46 20.62 57.84 20.39L63 17.27Z" fill="#323232"/>
</g>
<g clip-path="url(#clip2_325_316)">
<path d="M87 17.27L92.17 20.39C92.55 20.62 93.02 20.28 92.92 19.85L91.55 13.97L96.11 10.02C96.44 9.72997 96.27 9.17997 95.82 9.13997L89.81 8.62997L87.46 3.08997C87.29 2.67997 86.71 2.67997 86.54 3.08997L84.19 8.62997L78.18 9.13997C77.74 9.17997 77.56 9.72997 77.9 10.02L82.46 13.97L81.09 19.85C80.99 20.28 81.46 20.62 81.84 20.39L87 17.27Z" fill="#323232"/>
</g>
<g clip-path="url(#clip3_325_316)">
<path d="M103.09 19.85L103.576 19.9632C103.576 19.9641 103.576 19.9651 103.576 19.966C103.576 19.9677 103.576 19.9675 103.577 19.9645L103.576 19.963L103.09 19.85ZM103.09 19.85C102.99 20.28 103.46 20.62 103.84 20.39L109 17.27L100.222 9.63838C100.221 9.63856 100.22 9.63871 100.22 9.63871C100.22 9.63871 100.221 9.63865 100.221 9.63851C100.221 9.63841 100.221 9.63829 100.222 9.63816C100.221 9.63726 100.221 9.63644 100.221 9.6358C100.22 9.63546 100.22 9.63532 100.22 9.63535C100.22 9.63542 100.221 9.63617 100.222 9.63752L100.18 9.13997M103.09 19.85L104.46 13.97L99.9 10.02C99.56 9.72997 99.74 9.17997 100.18 9.13997M100.18 9.13997L100.225 9.63582M100.18 9.13997L106.19 8.62997L108.54 3.08997C108.71 2.67997 109.29 2.67997 109.46 3.08997L100.225 9.63582M100.225 9.63582C100.225 9.63572 100.225 9.63566 100.225 9.63567C100.225 9.63567 100.225 9.63574 100.225 9.63588L100.225 9.63582ZM109.258 16.8419L109 16.6858L108.741 16.8421L103.581 19.9621L103.581 19.9622C103.58 19.9626 103.58 19.9629 103.579 19.9632C103.579 19.9629 103.578 19.9625 103.577 19.962C103.577 19.9619 103.577 19.9619 103.577 19.9618L104.947 14.0834L105.015 13.7896L104.787 13.592L100.227 9.64204L100.227 9.64203L100.224 9.63955C100.224 9.6393 100.224 9.63907 100.224 9.63884C100.224 9.63856 100.224 9.6383 100.224 9.63806C100.224 9.63803 100.224 9.63801 100.225 9.63799L106.232 9.12818L106.533 9.1027L106.65 8.82522L109 3.28593L111.35 8.82522L111.467 9.1027L111.768 9.12818L117.776 9.63801C117.776 9.63802 117.776 9.63804 117.776 9.63806C117.778 9.63826 117.78 9.63852 117.781 9.63876C117.781 9.63894 117.781 9.63913 117.782 9.63933C117.782 9.64053 117.782 9.64152 117.782 9.64227C117.782 9.64272 117.781 9.64324 117.781 9.64385C117.78 9.64402 117.78 9.6442 117.78 9.64439L113.223 13.592L112.995 13.7896L113.063 14.0834L114.433 19.9618C114.433 19.9619 114.433 19.9619 114.432 19.962C114.432 19.9625 114.431 19.9629 114.431 19.9632C114.43 19.9629 114.43 19.9626 114.429 19.9622L114.428 19.9619L109.258 16.8419ZM103.577 19.9634C103.577 19.9633 103.577 19.9633 103.577 19.9632L103.577 19.9634Z" fill="#323232" stroke="#323232"/>
</g>
<g clip-path="url(#clip4_325_316)">
<path d="M127.09 19.85L127.576 19.9632C127.576 19.9641 127.576 19.9651 127.576 19.966C127.576 19.9677 127.576 19.9675 127.577 19.9645L127.576 19.963L127.09 19.85ZM127.09 19.85C126.99 20.28 127.46 20.62 127.84 20.39L133 17.27L124.222 9.63838C124.221 9.63856 124.22 9.63871 124.22 9.63871C124.22 9.63871 124.221 9.63865 124.221 9.63851C124.221 9.63841 124.221 9.63829 124.222 9.63816C124.221 9.63726 124.221 9.63644 124.221 9.6358C124.22 9.63546 124.22 9.63532 124.22 9.63535C124.22 9.63542 124.221 9.63617 124.222 9.63752L124.18 9.13997M127.09 19.85L128.46 13.97L123.9 10.02C123.56 9.72997 123.74 9.17997 124.18 9.13997M124.18 9.13997L124.225 9.63582M124.18 9.13997L130.19 8.62997L132.54 3.08997C132.71 2.67997 133.29 2.67997 133.46 3.08997L124.225 9.63582M124.225 9.63582C124.225 9.63572 124.225 9.63566 124.225 9.63567C124.225 9.63567 124.225 9.63574 124.225 9.63588L124.225 9.63582ZM133.258 16.8419L133 16.6858L132.741 16.8421L127.581 19.9621L127.581 19.9622C127.58 19.9626 127.58 19.9629 127.579 19.9632C127.579 19.9629 127.578 19.9625 127.577 19.962C127.577 19.9619 127.577 19.9619 127.577 19.9618L128.947 14.0834L129.015 13.7896L128.787 13.592L124.227 9.64204L124.227 9.64203L124.224 9.63955C124.224 9.6393 124.224 9.63907 124.224 9.63884C124.224 9.63856 124.224 9.6383 124.224 9.63806C124.224 9.63803 124.224 9.63801 124.225 9.63799L130.232 9.12818L130.533 9.1027L130.65 8.82522L133 3.28593L135.35 8.82522L135.467 9.1027L135.768 9.12818L141.776 9.63801C141.776 9.63802 141.776 9.63804 141.776 9.63806C141.778 9.63826 141.78 9.63852 141.781 9.63876C141.781 9.63894 141.781 9.63913 141.782 9.63933C141.782 9.64053 141.782 9.64152 141.782 9.64227C141.782 9.64272 141.781 9.64324 141.781 9.64385C141.78 9.64402 141.78 9.6442 141.78 9.64439L137.223 13.592L136.995 13.7896L137.063 14.0834L138.433 19.9618C138.433 19.9619 138.433 19.9619 138.432 19.962C138.432 19.9625 138.431 19.9629 138.431 19.9632C138.43 19.9629 138.43 19.9626 138.429 19.9622L138.428 19.9619L133.258 16.8419ZM127.577 19.9634C127.577 19.9633 127.577 19.9633 127.577 19.9632L127.577 19.9634Z" fill="#F5F5F5" stroke="black"/>
</g>
<path d="M5.41406 9.875C5.41406 9.78125 5.40104 9.73438 5.375 9.73438C5.35417 9.73438 5.27083 9.83333 5.125 10.0312C4.98438 10.2292 4.90104 10.3516 4.875 10.3984L4.73438 10.5859C4.71875 10.6068 4.65885 10.6901 4.55469 10.8359C4.45052 10.9766 4.3776 11.0781 4.33594 11.1406C4.29427 11.1979 4.23438 11.2786 4.15625 11.3828C2.73958 13.1849 2.03125 14.1667 2.03125 14.3281V14.3672C2.03125 14.3984 2.15885 14.4141 2.41406 14.4141H2.48438L2.54688 14.4062L3.40625 14.3984C4.32292 14.3984 4.83854 14.3698 4.95312 14.3125C5.06771 14.2552 5.125 14.0443 5.125 13.6797L5.14844 13.3984C5.16927 13.2109 5.17969 13.0703 5.17969 12.9766C5.1901 12.8828 5.19531 12.8125 5.19531 12.7656L5.21875 12.4844L5.26562 11.7734L5.28125 11.4922C5.31771 11.1641 5.33594 10.9583 5.33594 10.875L5.35156 10.6016C5.36719 10.4661 5.375 10.3776 5.375 10.3359L5.39844 10.1328L5.41406 9.875ZM6.89062 16.8047C6.89062 17.8151 6.54167 18.3203 5.84375 18.3203H5.69531C5.3724 18.3203 5.13542 18.2135 4.98438 18C4.83333 17.7812 4.75781 17.5052 4.75781 17.1719C4.75781 17.1667 4.76302 17.0755 4.77344 16.8984L4.79688 16.5156C4.79688 16.2031 4.5026 15.9323 3.91406 15.7031C3.59115 15.5781 3.08333 15.5156 2.39062 15.5156C1.70312 15.5156 1.2526 15.4609 1.03906 15.3516C0.825521 15.2422 0.71875 15.0547 0.71875 14.7891V14.6719C0.71875 14.2969 2.08594 12.3359 4.82031 8.78906C5.35677 8.09115 5.8125 7.74219 6.1875 7.74219H6.32812C6.60417 7.74219 6.77865 7.82292 6.85156 7.98438C6.92969 8.14062 6.96875 8.39844 6.96875 8.75781C6.96875 9.11198 6.96094 9.46354 6.94531 9.8125L6.92188 10.1641L6.90625 10.5156C6.88542 10.9844 6.875 11.526 6.875 12.1406C6.875 12.7552 6.93229 13.224 7.04688 13.5469C7.16146 13.8698 7.33333 14.1458 7.5625 14.375C7.79167 14.6042 7.90625 14.7656 7.90625 14.8594C7.90625 15.3177 7.68229 15.6719 7.23438 15.9219C7.06771 16.0156 6.96875 16.099 6.9375 16.1719C6.90625 16.2448 6.89062 16.4557 6.89062 16.8047ZM10.9609 18.125H10.7188C10.4583 18.125 10.2552 18.0651 10.1094 17.9453C9.96875 17.8255 9.89844 17.6667 9.89844 17.4688C9.88802 17.4271 9.88281 17.3932 9.88281 17.3672L9.86719 17.2344V17.0938L9.875 17.0625V16.9922C9.88542 16.9505 9.89062 16.9167 9.89062 16.8906C9.89062 16.6562 9.96875 16.474 10.125 16.3438C10.2865 16.2083 10.4635 16.1406 10.6562 16.1406L10.8203 16.1172H11.0312C11.599 16.1172 11.8828 16.4141 11.8828 17.0078V17.1172L11.8516 17.3828C11.8516 17.6224 11.7604 17.8073 11.5781 17.9375C11.401 18.0625 11.1953 18.125 10.9609 18.125ZM19.6719 12.5938V12.1172C19.6719 11.0807 19.5104 10.2396 19.1875 9.59375C18.8646 8.95312 18.3984 8.63281 17.7891 8.63281H17.7734C17.4297 8.63281 17.1068 8.72656 16.8047 8.91406C16.5078 9.09635 16.2656 9.35417 16.0781 9.6875C15.5885 10.5521 15.3438 11.5677 15.3438 12.7344L15.3281 12.9766L15.3203 13.3281V13.4531C15.3203 15.1771 15.6927 16.2995 16.4375 16.8203C16.6667 16.9818 16.9453 17.0625 17.2734 17.0625L17.375 17.0547H17.4766C17.7422 17.0547 18.0234 16.9427 18.3203 16.7188C18.6172 16.4948 18.8568 16.1927 19.0391 15.8125C19.4609 14.9323 19.6719 13.8594 19.6719 12.5938ZM17.6562 7.54688H17.9609C18.9609 7.54688 19.7891 7.96094 20.4453 8.78906C20.7318 9.15885 20.9583 9.65104 21.125 10.2656C21.2917 10.875 21.375 11.5573 21.375 12.3125V12.4688C21.375 13.2865 21.2786 14.0521 21.0859 14.7656C20.6953 16.2135 19.9844 17.2083 18.9531 17.75C18.4323 18.026 17.8724 18.1641 17.2734 18.1641H17.1172C16.0547 18.1641 15.2135 17.7135 14.5938 16.8125C14.0365 16.0104 13.7578 14.8229 13.7578 13.25C13.7578 13.2292 13.7578 13.2083 13.7578 13.1875C13.7578 12.4531 13.8438 11.737 14.0156 11.0391C14.3802 9.54427 15.0833 8.51823 16.125 7.96094C16.6458 7.6849 17.1562 7.54688 17.6562 7.54688Z" fill="black"/>
<defs>
<clipPath id="clip0_325_316">
<rect x="27" width="24" height="24" rx="12" fill="white"/>
</clipPath>
<clipPath id="clip1_325_316">
<rect x="51" width="24" height="24" rx="12" fill="white"/>
</clipPath>
<clipPath id="clip2_325_316">
<rect x="75" width="24" height="24" rx="12" fill="white"/>
</clipPath>
<clipPath id="clip3_325_316">
<rect x="97" width="24" height="24" rx="12" fill="white"/>
</clipPath>
<clipPath id="clip4_325_316">
<rect x="121" width="24" height="24" rx="12" fill="white"/>
</clipPath>
</defs>
</svg>
