<svg width="78" height="16" viewBox="0 0 78 16" fill="none" xmlns="http://www.w3.org/2000/svg">
<path d="M0.558 15L4.365 3.3L4.68 1.5L6.633 1.32L11.115 15H9.315L7.983 10.95H3.528L2.214 15H0.558ZM5.751 2.76L5.427 5.1L3.969 9.6H7.542L6.075 5.1L5.751 2.76ZM15.217 13.461C15.331 13.497 15.463 13.533 15.613 13.569C15.763 13.599 15.922 13.626 16.09 13.65C16.264 13.668 16.441 13.683 16.621 13.695C16.801 13.707 16.975 13.713 17.143 13.713C17.509 13.713 17.83 13.653 18.106 13.533C18.388 13.413 18.631 13.254 18.835 13.056C19.039 12.852 19.207 12.615 19.339 12.345C19.477 12.069 19.588 11.781 19.672 11.481C19.756 11.175 19.813 10.86 19.843 10.536C19.879 10.212 19.897 9.897 19.897 9.591C19.897 8.991 19.84 8.487 19.726 8.079C19.612 7.671 19.456 7.341 19.258 7.089C19.066 6.837 18.841 6.657 18.583 6.549C18.331 6.441 18.064 6.387 17.782 6.387C17.308 6.387 16.855 6.48 16.423 6.666C15.991 6.846 15.589 7.089 15.217 7.395V13.461ZM13.507 2.22L13.327 0.6L15.217 0.419999V6.234L15.982 5.415C16.288 5.271 16.609 5.157 16.945 5.073C17.281 4.989 17.617 4.947 17.953 4.947C18.451 4.947 18.919 5.049 19.357 5.253C19.801 5.457 20.188 5.76 20.518 6.162C20.854 6.558 21.118 7.047 21.31 7.629C21.508 8.211 21.607 8.88 21.607 9.636C21.607 10.464 21.493 11.217 21.265 11.895C21.043 12.573 20.728 13.155 20.32 13.641C19.918 14.121 19.438 14.493 18.88 14.757C18.328 15.021 17.722 15.153 17.062 15.153C16.684 15.153 16.312 15.138 15.946 15.108C15.58 15.084 15.238 15.048 14.92 15C14.602 14.958 14.32 14.91 14.074 14.856C13.828 14.796 13.639 14.739 13.507 14.685V2.22ZM27.891 15.153C27.225 15.153 26.616 15.024 26.064 14.766C25.518 14.502 25.047 14.142 24.651 13.686C24.255 13.224 23.946 12.681 23.724 12.057C23.508 11.427 23.4 10.749 23.4 10.023C23.4 9.297 23.505 8.625 23.715 8.007C23.925 7.383 24.225 6.846 24.615 6.396C25.005 5.94 25.476 5.586 26.028 5.334C26.586 5.076 27.207 4.947 27.891 4.947C28.557 4.947 29.166 5.076 29.718 5.334C30.27 5.586 30.744 5.94 31.14 6.396C31.536 6.846 31.845 7.383 32.067 8.007C32.289 8.625 32.4 9.297 32.4 10.023C32.4 10.749 32.292 11.427 32.076 12.057C31.866 12.681 31.566 13.224 31.176 13.686C30.786 14.142 30.312 14.502 29.754 14.766C29.196 15.024 28.575 15.153 27.891 15.153ZM30.69 10.266C30.69 9.78 30.636 9.303 30.528 8.835C30.426 8.367 30.261 7.95 30.033 7.584C29.805 7.212 29.511 6.912 29.151 6.684C28.791 6.456 28.359 6.342 27.855 6.342C27.375 6.342 26.961 6.441 26.613 6.639C26.265 6.837 25.98 7.101 25.758 7.431C25.536 7.761 25.371 8.136 25.263 8.556C25.161 8.976 25.11 9.408 25.11 9.852C25.11 10.338 25.161 10.815 25.263 11.283C25.371 11.751 25.536 12.168 25.758 12.534C25.986 12.9 26.277 13.197 26.631 13.425C26.991 13.647 27.423 13.758 27.927 13.758C28.401 13.758 28.812 13.659 29.16 13.461C29.508 13.263 29.796 13.002 30.024 12.678C30.252 12.348 30.42 11.973 30.528 11.553C30.636 11.133 30.69 10.704 30.69 10.266ZM40.583 5.1L42.293 4.92V15H40.583V13.533L40.034 14.496C39.926 14.568 39.797 14.643 39.647 14.721C39.503 14.799 39.338 14.871 39.152 14.937C38.966 14.997 38.762 15.048 38.54 15.09C38.318 15.132 38.084 15.153 37.838 15.153C37.358 15.153 36.944 15.066 36.596 14.892C36.254 14.718 35.972 14.475 35.75 14.163C35.528 13.851 35.363 13.482 35.255 13.056C35.147 12.624 35.093 12.156 35.093 11.652V5.1L36.803 4.92V11.652C36.803 12.3 36.932 12.807 37.19 13.173C37.454 13.533 37.865 13.713 38.423 13.713C38.627 13.713 38.828 13.68 39.026 13.614C39.224 13.548 39.416 13.464 39.602 13.362C39.788 13.26 39.962 13.149 40.124 13.029C40.292 12.909 40.445 12.792 40.583 12.678V5.1ZM47.5959 11.616C47.5959 12.012 47.6169 12.345 47.6589 12.615C47.7069 12.879 47.7729 13.095 47.8569 13.263C47.9469 13.425 48.0549 13.542 48.1809 13.614C48.3129 13.68 48.4629 13.713 48.6309 13.713C48.7629 13.713 48.8829 13.707 48.9909 13.695C49.0989 13.677 49.1919 13.656 49.2699 13.632C49.3599 13.608 49.4409 13.581 49.5129 13.551L50.1339 14.64C50.0859 14.688 50.0079 14.742 49.8999 14.802C49.7979 14.856 49.6749 14.91 49.5309 14.964C49.3869 15.018 49.2219 15.063 49.0359 15.099C48.8559 15.135 48.6609 15.153 48.4509 15.153C47.9109 15.153 47.4729 15.054 47.1369 14.856C46.8009 14.658 46.5399 14.388 46.3539 14.046C46.1679 13.704 46.0419 13.308 45.9759 12.858C45.9159 12.402 45.8859 11.916 45.8859 11.4V6.54H44.5359V5.1H45.8859V3.219L47.5509 2.22V5.1H50.6109L50.4309 6.54H47.5959V11.616ZM68.5659 1.5V10.293C68.5659 11.109 68.4429 11.823 68.1969 12.435C67.9509 13.041 67.6119 13.545 67.1799 13.947C66.7539 14.349 66.2469 14.652 65.6589 14.856C65.0709 15.054 64.4349 15.153 63.7509 15.153C63.0189 15.153 62.3709 15.027 61.8069 14.775C61.2429 14.517 60.7689 14.157 60.3849 13.695C60.0009 13.227 59.7069 12.666 59.5029 12.012C59.3049 11.358 59.2059 10.635 59.2059 9.843V3.39L58.9359 1.5L61.0509 1.32V10.014C61.0509 10.584 61.1259 11.094 61.2759 11.544C61.4259 11.988 61.6269 12.366 61.8789 12.678C62.1369 12.984 62.4339 13.218 62.7699 13.38C63.1059 13.542 63.4629 13.623 63.8409 13.623C64.2789 13.623 64.6749 13.557 65.0289 13.425C65.3889 13.293 65.6919 13.095 65.9379 12.831C66.1899 12.567 66.3819 12.24 66.5139 11.85C66.6519 11.454 66.7209 10.992 66.7209 10.464V1.5H68.5659ZM76.1385 6.729C76.0305 6.675 75.9015 6.621 75.7515 6.567C75.6015 6.513 75.4455 6.465 75.2835 6.423C75.1215 6.381 74.9565 6.348 74.7885 6.324C74.6265 6.3 74.4705 6.288 74.3205 6.288C73.6845 6.288 73.2345 6.384 72.9705 6.576C72.7065 6.762 72.5745 7.044 72.5745 7.422C72.5745 7.674 72.6615 7.884 72.8355 8.052C73.0095 8.214 73.2345 8.361 73.5105 8.493C73.7865 8.625 74.0925 8.751 74.4285 8.871C74.7705 8.985 75.1035 9.123 75.4275 9.285C75.6615 9.399 75.8985 9.534 76.1385 9.69C76.3785 9.846 76.5945 10.029 76.7865 10.239C76.9785 10.449 77.1345 10.686 77.2545 10.95C77.3745 11.214 77.4345 11.511 77.4345 11.841C77.4345 12.447 77.3325 12.96 77.1285 13.38C76.9245 13.8 76.6455 14.142 76.2915 14.406C75.9435 14.664 75.5325 14.853 75.0585 14.973C74.5905 15.093 74.0895 15.153 73.5555 15.153C73.3515 15.153 73.1205 15.132 72.8625 15.09C72.6045 15.054 72.3465 15.003 72.0885 14.937C71.8305 14.865 71.5845 14.781 71.3505 14.685C71.1165 14.589 70.9215 14.487 70.7655 14.379L71.3595 13.191C71.5035 13.263 71.6745 13.332 71.8725 13.398C72.0705 13.458 72.2745 13.512 72.4845 13.56C72.6945 13.608 72.9015 13.647 73.1055 13.677C73.3155 13.701 73.5015 13.713 73.6635 13.713C73.9395 13.713 74.2035 13.686 74.4555 13.632C74.7135 13.572 74.9385 13.479 75.1305 13.353C75.3285 13.227 75.4845 13.065 75.5985 12.867C75.7185 12.663 75.7785 12.414 75.7785 12.12C75.7785 11.898 75.7305 11.703 75.6345 11.535C75.5445 11.367 75.4185 11.22 75.2565 11.094C75.1005 10.962 74.9175 10.842 74.7075 10.734C74.4975 10.626 74.2755 10.524 74.0415 10.428C73.8075 10.326 73.5675 10.224 73.3215 10.122C73.0755 10.014 72.8415 9.897 72.6195 9.771C72.4095 9.651 72.2055 9.519 72.0075 9.375C71.8155 9.231 71.6445 9.069 71.4945 8.889C71.3445 8.709 71.2245 8.508 71.1345 8.286C71.0445 8.058 70.9995 7.8 70.9995 7.512C70.9995 7.056 71.0805 6.666 71.2425 6.342C71.4045 6.012 71.6325 5.745 71.9265 5.541C72.2205 5.337 72.5745 5.187 72.9885 5.091C73.4025 4.995 73.8585 4.947 74.3565 4.947C74.5845 4.947 74.8095 4.965 75.0315 5.001C75.2535 5.037 75.4665 5.085 75.6705 5.145C75.8745 5.199 76.0605 5.265 76.2285 5.343C76.3965 5.421 76.5405 5.499 76.6605 5.577L76.1385 6.729Z" fill="#F5F5F5"/>
</svg>
