<svg width="53" height="17" viewBox="0 0 53 17" fill="none" xmlns="http://www.w3.org/2000/svg">
<path d="M9.15 16V8.75H2.85V16H0.8V3.1L0.51 0.999999L2.85 0.799999V7.15H9.15V0.979999L11.2 0.799999V16H9.15ZM18.9939 16.17C18.2539 16.17 17.5772 16.0267 16.9639 15.74C16.3572 15.4467 15.8339 15.0467 15.3939 14.54C14.9539 14.0267 14.6106 13.4233 14.3639 12.73C14.1239 12.03 14.0039 11.2767 14.0039 10.47C14.0039 9.66333 14.1206 8.91667 14.3539 8.23C14.5872 7.53667 14.9206 6.94 15.3539 6.44C15.7872 5.93333 16.3106 5.54 16.9239 5.26C17.5439 4.97333 18.2339 4.83 18.9939 4.83C19.7339 4.83 20.4106 4.97333 21.0239 5.26C21.6372 5.54 22.1639 5.93333 22.6039 6.44C23.0439 6.94 23.3872 7.53667 23.6339 8.23C23.8806 8.91667 24.0039 9.66333 24.0039 10.47C24.0039 11.2767 23.8839 12.03 23.6439 12.73C23.4106 13.4233 23.0772 14.0267 22.6439 14.54C22.2106 15.0467 21.6839 15.4467 21.0639 15.74C20.4439 16.0267 19.7539 16.17 18.9939 16.17ZM22.1039 10.74C22.1039 10.2 22.0439 9.67 21.9239 9.15C21.8106 8.63 21.6272 8.16667 21.3739 7.76C21.1206 7.34667 20.7939 7.01333 20.3939 6.76C19.9939 6.50667 19.5139 6.38 18.9539 6.38C18.4206 6.38 17.9606 6.49 17.5739 6.71C17.1872 6.93 16.8706 7.22333 16.6239 7.59C16.3772 7.95667 16.1939 8.37333 16.0739 8.84C15.9606 9.30667 15.9039 9.78667 15.9039 10.28C15.9039 10.82 15.9606 11.35 16.0739 11.87C16.1939 12.39 16.3772 12.8533 16.6239 13.26C16.8772 13.6667 17.2006 13.9967 17.5939 14.25C17.9939 14.4967 18.4739 14.62 19.0339 14.62C19.5606 14.62 20.0172 14.51 20.4039 14.29C20.7906 14.07 21.1106 13.78 21.3639 13.42C21.6172 13.0533 21.8039 12.6367 21.9239 12.17C22.0439 11.7033 22.1039 11.2267 22.1039 10.74ZM28.8961 16H26.9961V5L28.8961 4.8V6.63L29.5061 5.56C29.6261 5.48 29.7761 5.39667 29.9561 5.31C30.1361 5.22333 30.3394 5.14667 30.5661 5.08C30.7928 5.00667 31.0361 4.94667 31.2961 4.9C31.5561 4.85333 31.8228 4.83 32.0961 4.83C32.8428 4.83 33.4494 5.01333 33.9161 5.38C34.3828 5.74 34.6861 6.20333 34.8261 6.77L35.5861 5.6C35.8194 5.41333 36.1494 5.24 36.5761 5.08C37.0028 4.91333 37.4928 4.83 38.0461 4.83C38.5528 4.83 38.9861 4.91667 39.3461 5.09C39.7061 5.25667 39.9994 5.5 40.2261 5.82C40.4594 6.14 40.6294 6.52667 40.7361 6.98C40.8428 7.43333 40.8961 7.94 40.8961 8.5V16H38.9961V8.6C38.9961 8.24 38.9694 7.92667 38.9161 7.66C38.8694 7.38667 38.7828 7.16 38.6561 6.98C38.5361 6.79333 38.3728 6.65667 38.1661 6.57C37.9594 6.47667 37.7028 6.43 37.3961 6.43C37.2028 6.43 36.9994 6.46333 36.7861 6.53C36.5794 6.59667 36.3694 6.68667 36.1561 6.8C35.9428 6.90667 35.7328 7.03333 35.5261 7.18C35.3261 7.32 35.1361 7.46333 34.9561 7.61C34.9761 7.80333 34.9861 7.96667 34.9861 8.1C34.9928 8.22667 34.9961 8.39333 34.9961 8.6V16H33.0961V8.6C33.0961 7.88 32.9761 7.34 32.7361 6.98C32.4961 6.61333 32.0661 6.43 31.4461 6.43C31.2461 6.43 31.0328 6.46 30.8061 6.52C30.5794 6.58 30.3528 6.66333 30.1261 6.77C29.9061 6.87667 29.6894 7 29.4761 7.14C29.2628 7.27333 29.0694 7.41333 28.8961 7.56V16ZM52.6639 14.71C52.4572 14.9233 52.2306 15.12 51.9839 15.3C51.7372 15.48 51.4639 15.6367 51.1639 15.77C50.8639 15.8967 50.5306 15.9933 50.1639 16.06C49.8039 16.1333 49.4006 16.17 48.9539 16.17C48.0672 16.17 47.3106 16.0133 46.6839 15.7C46.0572 15.3867 45.5439 14.9667 45.1439 14.44C44.7506 13.9133 44.4606 13.31 44.2739 12.63C44.0939 11.95 44.0039 11.24 44.0039 10.5C44.0039 10.0267 44.0472 9.56 44.1339 9.1C44.2206 8.63333 44.3506 8.19 44.5239 7.77C44.6972 7.35 44.9139 6.96 45.1739 6.6C45.4339 6.24 45.7372 5.93 46.0839 5.67C46.4306 5.41 46.8206 5.20667 47.2539 5.06C47.6939 4.90667 48.1772 4.83 48.7039 4.83C49.4239 4.83 50.0472 4.94667 50.5739 5.18C51.1006 5.41333 51.5372 5.74 51.8839 6.16C52.2306 6.58 52.4872 7.08333 52.6539 7.67C52.8206 8.25667 52.9039 8.90667 52.9039 9.62C52.9039 9.82667 52.8972 10.0533 52.8839 10.3C52.8706 10.5467 52.8506 10.78 52.8239 11H45.9039C45.9039 11.5 45.9706 11.9667 46.1039 12.4C46.2439 12.8333 46.4372 13.2133 46.6839 13.54C46.9306 13.86 47.2272 14.1133 47.5739 14.3C47.9272 14.48 48.3206 14.57 48.7539 14.57C49.1806 14.57 49.5506 14.54 49.8639 14.48C50.1839 14.4133 50.4572 14.3367 50.6839 14.25C50.9106 14.1567 51.0939 14.0633 51.2339 13.97C51.3806 13.8767 51.4939 13.8033 51.5739 13.75L52.6639 14.71ZM51.0039 9.5C51.0106 9.42667 51.0139 9.35333 51.0139 9.28C51.0206 9.20667 51.0239 9.13333 51.0239 9.06C51.0239 8.68 50.9806 8.33 50.8939 8.01C50.8072 7.69 50.6739 7.41333 50.4939 7.18C50.3206 6.94 50.0972 6.75333 49.8239 6.62C49.5506 6.48667 49.2272 6.42 48.8539 6.42C48.4072 6.42 48.0239 6.49333 47.7039 6.64C47.3906 6.78 47.1239 6.96333 46.9039 7.19C46.6906 7.41 46.5172 7.65333 46.3839 7.92C46.2572 8.18667 46.1606 8.44 46.0939 8.68L45.5739 9.77L47.3539 9.5H51.0039Z" fill="#F5F5F5"/>
</svg>
