<svg width="31" height="31" viewBox="0 0 31 31" fill="none" xmlns="http://www.w3.org/2000/svg">
<rect x="1.89273" y="2.53271" width="26.4981" height="26.4981" rx="6" fill="url(#paint0_radial_325_399)"/>
<rect x="1.89273" y="2.53271" width="26.4981" height="26.4981" rx="6" fill="url(#paint1_radial_325_399)"/>
<rect x="1.89273" y="2.53271" width="26.4981" height="26.4981" rx="6" fill="url(#paint2_radial_325_399)"/>
<path d="M21.7663 10.5767C21.7663 11.3607 21.1308 11.9963 20.3468 11.9963C19.5628 11.9963 18.9272 11.3607 18.9272 10.5767C18.9272 9.79275 19.5628 9.1572 20.3468 9.1572C21.1308 9.1572 21.7663 9.79275 21.7663 10.5767Z" fill="white"/>
<path fill-rule="evenodd" clip-rule="evenodd" d="M15.1418 20.5135C17.7551 20.5135 19.8736 18.395 19.8736 15.7817C19.8736 13.1684 17.7551 11.0499 15.1418 11.0499C12.5285 11.0499 10.41 13.1684 10.41 15.7817C10.41 18.395 12.5285 20.5135 15.1418 20.5135ZM15.1418 18.6208C16.7098 18.6208 17.9809 17.3497 17.9809 15.7817C17.9809 14.2138 16.7098 12.9426 15.1418 12.9426C13.5738 12.9426 12.3027 14.2138 12.3027 15.7817C12.3027 17.3497 13.5738 18.6208 15.1418 18.6208Z" fill="white"/>
<path fill-rule="evenodd" clip-rule="evenodd" d="M5.67816 15.4032C5.67816 12.2231 5.67816 10.6331 6.29705 9.41845C6.84143 8.35003 7.71008 7.48138 8.7785 6.937C9.99312 6.31812 11.5832 6.31812 14.7632 6.31812H15.5203C18.7004 6.31812 20.2904 6.31812 21.5051 6.937C22.5735 7.48138 23.4421 8.35003 23.9865 9.41845C24.6054 10.6331 24.6054 12.2231 24.6054 15.4032V16.1603C24.6054 19.3404 24.6054 20.9304 23.9865 22.145C23.4421 23.2134 22.5735 24.0821 21.5051 24.6265C20.2904 25.2454 18.7004 25.2454 15.5203 25.2454H14.7632C11.5832 25.2454 9.99312 25.2454 8.7785 24.6265C7.71008 24.0821 6.84143 23.2134 6.29705 22.145C5.67816 20.9304 5.67816 19.3404 5.67816 16.1603V15.4032ZM14.7632 8.21084H15.5203C17.1416 8.21084 18.2437 8.21231 19.0956 8.28191C19.9254 8.34971 20.3498 8.4726 20.6458 8.62343C21.3581 8.98635 21.9372 9.56545 22.3001 10.2777C22.4509 10.5738 22.5738 10.9981 22.6416 11.8279C22.7112 12.6798 22.7127 13.7819 22.7127 15.4032V16.1603C22.7127 17.7815 22.7112 18.8837 22.6416 19.7356C22.5738 20.5654 22.4509 20.9897 22.3001 21.2857C21.9372 21.998 21.3581 22.5771 20.6458 22.94C20.3498 23.0909 19.9254 23.2138 19.0956 23.2816C18.2437 23.3512 17.1416 23.3526 15.5203 23.3526H14.7632C13.142 23.3526 12.0398 23.3512 11.188 23.2816C10.3582 23.2138 9.9338 23.0909 9.63778 22.94C8.9255 22.5771 8.3464 21.998 7.98347 21.2857C7.83264 20.9897 7.70976 20.5654 7.64196 19.7356C7.57236 18.8837 7.57089 17.7815 7.57089 16.1603V15.4032C7.57089 13.7819 7.57236 12.6798 7.64196 11.8279C7.70976 10.9981 7.83264 10.5738 7.98347 10.2777C8.3464 9.56545 8.9255 8.98635 9.63778 8.62343C9.9338 8.4726 10.3582 8.34971 11.188 8.28191C12.0398 8.21231 13.142 8.21084 14.7632 8.21084Z" fill="white"/>
<defs>
<radialGradient id="paint0_radial_325_399" cx="0" cy="0" r="1" gradientUnits="userSpaceOnUse" gradientTransform="translate(11.3564 22.4063) rotate(-55.3758) scale(24.1508)">
<stop stop-color="#B13589"/>
<stop offset="0.79309" stop-color="#C62F94"/>
<stop offset="1" stop-color="#8A3AC8"/>
</radialGradient>
<radialGradient id="paint1_radial_325_399" cx="0" cy="0" r="1" gradientUnits="userSpaceOnUse" gradientTransform="translate(10.41 29.9772) rotate(-65.1363) scale(21.3823)">
<stop stop-color="#E0E8B7"/>
<stop offset="0.444662" stop-color="#FB8A2E"/>
<stop offset="0.71474" stop-color="#E2425C"/>
<stop offset="1" stop-color="#E2425C" stop-opacity="0"/>
</radialGradient>
<radialGradient id="paint2_radial_325_399" cx="0" cy="0" r="1" gradientUnits="userSpaceOnUse" gradientTransform="translate(0.473189 3.47908) rotate(-8.1301) scale(36.8048 7.87218)">
<stop offset="0.156701" stop-color="#406ADC"/>
<stop offset="0.467799" stop-color="#6A45BE"/>
<stop offset="1" stop-color="#6A45BE" stop-opacity="0"/>
</radialGradient>
</defs>
</svg>
