<svg width="164" height="36" viewBox="0 0 164 36" fill="none" xmlns="http://www.w3.org/2000/svg">
<g clip-path="url(#clip0_325_376)">
<path d="M18.4846 3C9.97459 3 3.08334 9.72 3.08334 18C3.08334 26.28 9.97459 33 18.4846 33C27.01 33 33.9167 26.28 33.9167 18C33.9167 9.72 27.01 3 18.4846 3ZM29.1683 12H24.6204C24.1271 10.125 23.4179 8.325 22.4929 6.66C25.3296 7.605 27.6883 9.525 29.1683 12ZM18.5 6.06C19.7796 7.86 20.7817 9.855 21.4446 12H15.5554C16.2183 9.855 17.2204 7.86 18.5 6.06ZM6.56751 21C6.32084 20.04 6.16668 19.035 6.16668 18C6.16668 16.965 6.32084 15.96 6.56751 15H11.7783C11.655 15.99 11.5625 16.98 11.5625 18C11.5625 19.02 11.655 20.01 11.7783 21H6.56751ZM7.83168 24H12.3796C12.8729 25.875 13.5821 27.675 14.5071 29.34C11.6704 28.395 9.31168 26.49 7.83168 24ZM12.3796 12H7.83168C9.31168 9.51 11.6704 7.605 14.5071 6.66C13.5821 8.325 12.8729 10.125 12.3796 12ZM18.5 29.94C17.2204 28.14 16.2183 26.145 15.5554 24H21.4446C20.7817 26.145 19.7796 28.14 18.5 29.94ZM22.1075 21H14.8925C14.7538 20.01 14.6458 19.02 14.6458 18C14.6458 16.98 14.7538 15.975 14.8925 15H22.1075C22.2463 15.975 22.3542 16.98 22.3542 18C22.3542 19.02 22.2463 20.01 22.1075 21ZM22.4929 29.34C23.4179 27.675 24.1271 25.875 24.6204 24H29.1683C27.6883 26.475 25.3296 28.395 22.4929 29.34ZM25.2217 21C25.345 20.01 25.4375 19.02 25.4375 18C25.4375 16.98 25.345 15.99 25.2217 15H30.4325C30.6792 15.96 30.8333 16.965 30.8333 18C30.8333 19.035 30.6792 20.04 30.4325 21H25.2217Z" fill="#323232"/>
</g>
<path d="M50.68 25.08H58.48L58.24 27H48.04L48.28 24.6V11.52L47.92 9L50.8 8.76V22.92L50.68 25.08ZM70.2353 27H67.7153V25.056L66.5873 26.4C66.4513 26.504 66.2953 26.604 66.1193 26.7C65.9433 26.796 65.7633 26.884 65.5793 26.964C65.4033 27.036 65.2233 27.092 65.0393 27.132C64.8633 27.18 64.6993 27.204 64.5473 27.204C63.9473 27.204 63.3713 27.112 62.8193 26.928C62.2753 26.736 61.7953 26.46 61.3793 26.1C60.9713 25.732 60.6433 25.28 60.3953 24.744C60.1553 24.2 60.0353 23.576 60.0353 22.872C60.0353 22.128 60.1833 21.484 60.4793 20.94C60.7833 20.388 61.1673 19.932 61.6313 19.572C62.1033 19.204 62.6273 18.932 63.2033 18.756C63.7793 18.572 64.3433 18.48 64.8953 18.48C65.3513 18.48 65.7513 18.504 66.0953 18.552C66.4473 18.6 66.7433 18.656 66.9833 18.72C67.2633 18.792 67.5073 18.872 67.7153 18.96V18.54C67.7153 18.068 67.6873 17.644 67.6313 17.268C67.5753 16.892 67.4593 16.576 67.2833 16.32C67.1153 16.056 66.8673 15.856 66.5393 15.72C66.2193 15.584 65.7913 15.516 65.2553 15.516C64.8233 15.516 64.4073 15.548 64.0073 15.612C63.6073 15.668 63.2513 15.732 62.9393 15.804C62.5713 15.892 62.2313 15.984 61.9193 16.08L61.0553 14.472C61.4073 14.312 61.8073 14.168 62.2553 14.04C62.6393 13.928 63.0953 13.828 63.6233 13.74C64.1513 13.644 64.7353 13.596 65.3753 13.596C66.2953 13.596 67.0553 13.72 67.6553 13.968C68.2553 14.216 68.7273 14.564 69.0713 15.012C69.4153 15.46 69.6553 16 69.7913 16.632C69.9273 17.256 69.9953 17.952 69.9953 18.72V24.84L70.2353 27ZM67.7153 20.604C67.4913 20.572 67.2513 20.54 66.9953 20.508C66.7793 20.484 66.5313 20.46 66.2513 20.436C65.9713 20.412 65.6793 20.4 65.3753 20.4C64.9273 20.4 64.5153 20.444 64.1393 20.532C63.7713 20.62 63.4513 20.764 63.1793 20.964C62.9073 21.156 62.6953 21.408 62.5433 21.72C62.3913 22.032 62.3153 22.412 62.3153 22.86C62.3153 23.22 62.3753 23.548 62.4953 23.844C62.6153 24.14 62.7793 24.396 62.9873 24.612C63.1953 24.828 63.4393 24.996 63.7193 25.116C64.0073 25.228 64.3153 25.284 64.6433 25.284C64.7953 25.284 64.9553 25.264 65.1233 25.224C65.2993 25.176 65.4713 25.116 65.6393 25.044C65.8153 24.972 65.9873 24.888 66.1553 24.792C66.3313 24.696 66.4953 24.6 66.6473 24.504C67.0073 24.272 67.3633 24.008 67.7153 23.712V20.604ZM76.4847 27H74.2047V13.8L76.4847 13.56V15.756L77.2167 14.472C77.3607 14.376 77.5447 14.276 77.7687 14.172C77.9927 14.068 78.2407 13.976 78.5127 13.896C78.7927 13.808 79.0927 13.736 79.4127 13.68C79.7327 13.624 80.0567 13.596 80.3847 13.596C81.0167 13.596 81.5487 13.7 81.9807 13.908C82.4207 14.108 82.7767 14.4 83.0487 14.784C83.3207 15.168 83.5127 15.632 83.6247 16.176C83.7447 16.72 83.8047 17.328 83.8047 18V27H81.5247V18C81.5247 17.568 81.4927 17.196 81.4287 16.884C81.3727 16.572 81.2687 16.316 81.1167 16.116C80.9727 15.908 80.7767 15.756 80.5287 15.66C80.2807 15.564 79.9727 15.516 79.6047 15.516C79.3327 15.516 79.0567 15.56 78.7767 15.648C78.4967 15.728 78.2207 15.836 77.9487 15.972C77.6847 16.1 77.4247 16.244 77.1687 16.404C76.9207 16.564 76.6927 16.72 76.4847 16.872V27ZM95.9153 25.38L94.8713 26.7C94.7993 26.748 94.6953 26.8 94.5593 26.856C94.4313 26.912 94.2713 26.964 94.0793 27.012C93.8873 27.068 93.6633 27.112 93.4073 27.144C93.1513 27.184 92.8673 27.204 92.5553 27.204C91.8273 27.204 91.1473 27.028 90.5153 26.676C89.8913 26.316 89.3473 25.832 88.8833 25.224C88.4193 24.608 88.0553 23.892 87.7913 23.076C87.5273 22.252 87.3953 21.38 87.3953 20.46C87.3953 19.524 87.5153 18.64 87.7553 17.808C87.9953 16.976 88.3553 16.248 88.8353 15.624C89.3153 15 89.9113 14.508 90.6233 14.148C91.3353 13.78 92.1633 13.596 93.1073 13.596C93.4033 13.596 93.6913 13.608 93.9713 13.632C94.2593 13.656 94.5273 13.712 94.7753 13.8L95.9153 15.504V13.56L98.1953 13.8V27.552C98.1953 28.336 98.0593 29.072 97.7873 29.76C97.5233 30.448 97.1393 31.044 96.6353 31.548C96.1313 32.06 95.5153 32.464 94.7873 32.76C94.0673 33.056 93.2513 33.204 92.3393 33.204C91.7073 33.204 91.1513 33.124 90.6713 32.964C90.1993 32.804 89.7953 32.628 89.4593 32.436C89.0753 32.212 88.7433 31.952 88.4633 31.656L89.6393 30.336C89.8713 30.512 90.1313 30.672 90.4193 30.816C90.6673 30.936 90.9553 31.044 91.2833 31.14C91.6113 31.236 91.9673 31.284 92.3513 31.284C92.8473 31.284 93.3113 31.18 93.7433 30.972C94.1753 30.772 94.5513 30.496 94.8713 30.144C95.1993 29.792 95.4553 29.376 95.6393 28.896C95.8233 28.424 95.9153 27.916 95.9153 27.372V25.38ZM95.9153 16.992C95.6993 16.72 95.4473 16.476 95.1593 16.26C94.9113 16.076 94.6113 15.908 94.2593 15.756C93.9073 15.596 93.5033 15.516 93.0473 15.516C92.5673 15.516 92.1513 15.592 91.7993 15.744C91.4473 15.896 91.1433 16.1 90.8873 16.356C90.6393 16.612 90.4353 16.912 90.2753 17.256C90.1233 17.592 89.9993 17.952 89.9033 18.336C89.8153 18.712 89.7553 19.096 89.7233 19.488C89.6913 19.872 89.6753 20.244 89.6753 20.604C89.6753 21.284 89.7473 21.912 89.8913 22.488C90.0433 23.056 90.2513 23.548 90.5153 23.964C90.7873 24.372 91.1113 24.692 91.4873 24.924C91.8713 25.156 92.2913 25.272 92.7473 25.272C93.1553 25.272 93.5193 25.228 93.8393 25.14C94.1593 25.052 94.4473 24.936 94.7033 24.792C94.9593 24.64 95.1833 24.472 95.3753 24.288C95.5753 24.096 95.7553 23.9 95.9153 23.7V16.992ZM110.306 13.8L112.586 13.56V27H110.306V25.044L109.574 26.328C109.43 26.424 109.258 26.524 109.058 26.628C108.866 26.732 108.646 26.828 108.398 26.916C108.15 26.996 107.878 27.064 107.582 27.12C107.286 27.176 106.974 27.204 106.646 27.204C106.006 27.204 105.454 27.088 104.99 26.856C104.534 26.624 104.158 26.3 103.862 25.884C103.566 25.468 103.346 24.976 103.202 24.408C103.058 23.832 102.986 23.208 102.986 22.536V13.8L105.266 13.56V22.536C105.266 23.4 105.438 24.076 105.782 24.564C106.134 25.044 106.682 25.284 107.426 25.284C107.698 25.284 107.966 25.24 108.23 25.152C108.494 25.064 108.75 24.952 108.998 24.816C109.246 24.68 109.478 24.532 109.694 24.372C109.918 24.212 110.122 24.056 110.306 23.904V13.8ZM126.017 27H123.497V25.056L122.369 26.4C122.233 26.504 122.077 26.604 121.901 26.7C121.725 26.796 121.545 26.884 121.361 26.964C121.185 27.036 121.005 27.092 120.821 27.132C120.645 27.18 120.481 27.204 120.329 27.204C119.729 27.204 119.153 27.112 118.601 26.928C118.057 26.736 117.577 26.46 117.161 26.1C116.753 25.732 116.425 25.28 116.177 24.744C115.937 24.2 115.817 23.576 115.817 22.872C115.817 22.128 115.965 21.484 116.261 20.94C116.565 20.388 116.949 19.932 117.413 19.572C117.885 19.204 118.409 18.932 118.985 18.756C119.561 18.572 120.125 18.48 120.677 18.48C121.133 18.48 121.533 18.504 121.877 18.552C122.229 18.6 122.525 18.656 122.765 18.72C123.045 18.792 123.289 18.872 123.497 18.96V18.54C123.497 18.068 123.469 17.644 123.413 17.268C123.357 16.892 123.241 16.576 123.065 16.32C122.897 16.056 122.649 15.856 122.321 15.72C122.001 15.584 121.573 15.516 121.037 15.516C120.605 15.516 120.189 15.548 119.789 15.612C119.389 15.668 119.033 15.732 118.721 15.804C118.353 15.892 118.013 15.984 117.701 16.08L116.837 14.472C117.189 14.312 117.589 14.168 118.037 14.04C118.421 13.928 118.877 13.828 119.405 13.74C119.933 13.644 120.517 13.596 121.157 13.596C122.077 13.596 122.837 13.72 123.437 13.968C124.037 14.216 124.509 14.564 124.853 15.012C125.197 15.46 125.437 16 125.573 16.632C125.709 17.256 125.777 17.952 125.777 18.72V24.84L126.017 27ZM123.497 20.604C123.273 20.572 123.033 20.54 122.777 20.508C122.561 20.484 122.313 20.46 122.033 20.436C121.753 20.412 121.461 20.4 121.157 20.4C120.709 20.4 120.297 20.444 119.921 20.532C119.553 20.62 119.233 20.764 118.961 20.964C118.689 21.156 118.477 21.408 118.325 21.72C118.173 22.032 118.097 22.412 118.097 22.86C118.097 23.22 118.157 23.548 118.277 23.844C118.397 24.14 118.561 24.396 118.769 24.612C118.977 24.828 119.221 24.996 119.501 25.116C119.789 25.228 120.097 25.284 120.425 25.284C120.577 25.284 120.737 25.264 120.905 25.224C121.081 25.176 121.253 25.116 121.421 25.044C121.597 24.972 121.769 24.888 121.937 24.792C122.113 24.696 122.277 24.6 122.429 24.504C122.789 24.272 123.145 24.008 123.497 23.712V20.604ZM137.306 25.38L136.262 26.7C136.19 26.748 136.086 26.8 135.95 26.856C135.822 26.912 135.662 26.964 135.47 27.012C135.278 27.068 135.054 27.112 134.798 27.144C134.542 27.184 134.258 27.204 133.946 27.204C133.218 27.204 132.538 27.028 131.906 26.676C131.282 26.316 130.738 25.832 130.274 25.224C129.81 24.608 129.446 23.892 129.182 23.076C128.918 22.252 128.786 21.38 128.786 20.46C128.786 19.524 128.906 18.64 129.146 17.808C129.386 16.976 129.746 16.248 130.226 15.624C130.706 15 131.302 14.508 132.014 14.148C132.726 13.78 133.554 13.596 134.498 13.596C134.794 13.596 135.082 13.608 135.362 13.632C135.65 13.656 135.918 13.712 136.166 13.8L137.306 15.504V13.56L139.586 13.8V27.552C139.586 28.336 139.45 29.072 139.178 29.76C138.914 30.448 138.53 31.044 138.026 31.548C137.522 32.06 136.906 32.464 136.178 32.76C135.458 33.056 134.642 33.204 133.73 33.204C133.098 33.204 132.542 33.124 132.062 32.964C131.59 32.804 131.186 32.628 130.85 32.436C130.466 32.212 130.134 31.952 129.854 31.656L131.03 30.336C131.262 30.512 131.522 30.672 131.81 30.816C132.058 30.936 132.346 31.044 132.674 31.14C133.002 31.236 133.358 31.284 133.742 31.284C134.238 31.284 134.702 31.18 135.134 30.972C135.566 30.772 135.942 30.496 136.262 30.144C136.59 29.792 136.846 29.376 137.03 28.896C137.214 28.424 137.306 27.916 137.306 27.372V25.38ZM137.306 16.992C137.09 16.72 136.838 16.476 136.55 16.26C136.302 16.076 136.002 15.908 135.65 15.756C135.298 15.596 134.894 15.516 134.438 15.516C133.958 15.516 133.542 15.592 133.19 15.744C132.838 15.896 132.534 16.1 132.278 16.356C132.03 16.612 131.826 16.912 131.666 17.256C131.514 17.592 131.39 17.952 131.294 18.336C131.206 18.712 131.146 19.096 131.114 19.488C131.082 19.872 131.066 20.244 131.066 20.604C131.066 21.284 131.138 21.912 131.282 22.488C131.434 23.056 131.642 23.548 131.906 23.964C132.178 24.372 132.502 24.692 132.878 24.924C133.262 25.156 133.682 25.272 134.138 25.272C134.546 25.272 134.91 25.228 135.23 25.14C135.55 25.052 135.838 24.936 136.094 24.792C136.35 24.64 136.574 24.472 136.766 24.288C136.966 24.096 137.146 23.9 137.306 23.7V16.992ZM153.569 25.452C153.321 25.708 153.049 25.944 152.753 26.16C152.457 26.376 152.129 26.564 151.769 26.724C151.409 26.876 151.009 26.992 150.569 27.072C150.137 27.16 149.653 27.204 149.117 27.204C148.053 27.204 147.145 27.016 146.393 26.64C145.641 26.264 145.025 25.76 144.545 25.128C144.073 24.496 143.725 23.772 143.501 22.956C143.285 22.14 143.177 21.288 143.177 20.4C143.177 19.832 143.229 19.272 143.333 18.72C143.437 18.16 143.593 17.628 143.801 17.124C144.009 16.62 144.269 16.152 144.581 15.72C144.893 15.288 145.257 14.916 145.673 14.604C146.089 14.292 146.557 14.048 147.077 13.872C147.605 13.688 148.185 13.596 148.817 13.596C149.681 13.596 150.429 13.736 151.061 14.016C151.693 14.296 152.217 14.688 152.633 15.192C153.049 15.696 153.357 16.3 153.557 17.004C153.757 17.708 153.857 18.488 153.857 19.344C153.857 19.592 153.849 19.864 153.833 20.16C153.817 20.456 153.793 20.736 153.761 21H145.457C145.457 21.6 145.537 22.16 145.697 22.68C145.865 23.2 146.097 23.656 146.393 24.048C146.689 24.432 147.045 24.736 147.461 24.96C147.885 25.176 148.357 25.284 148.877 25.284C149.389 25.284 149.833 25.248 150.209 25.176C150.593 25.096 150.921 25.004 151.193 24.9C151.465 24.788 151.685 24.676 151.853 24.564C152.029 24.452 152.165 24.364 152.261 24.3L153.569 25.452ZM151.577 19.2C151.585 19.112 151.589 19.024 151.589 18.936C151.597 18.848 151.601 18.76 151.601 18.672C151.601 18.216 151.549 17.796 151.445 17.412C151.341 17.028 151.181 16.696 150.965 16.416C150.757 16.128 150.489 15.904 150.161 15.744C149.833 15.584 149.445 15.504 148.997 15.504C148.461 15.504 148.001 15.592 147.617 15.768C147.241 15.936 146.921 16.156 146.657 16.428C146.401 16.692 146.193 16.984 146.033 17.304C145.881 17.624 145.765 17.928 145.685 18.216L145.061 19.524L147.197 19.2H151.577Z" fill="black"/>
<defs>
<clipPath id="clip0_325_376">
<rect width="37" height="36" fill="white"/>
</clipPath>
</defs>
</svg>
