<svg width="151" height="38" viewBox="0 0 151 38" fill="none" xmlns="http://www.w3.org/2000/svg">
<path d="M10.4326 36.1343L6.76538 29.697L12.1473 20.2759L15.5672 26.2795L35.7559 26.2686L30.0272 36.2232L10.4326 36.1343Z" fill="#FFF9C4"/>
<path d="M39.1327 20.4281L35.4655 26.8653L24.7239 26.8525L28.1442 20.8489L18.0405 3.13525L29.4113 3.18582L39.1327 20.4281Z" fill="#FB8351"/>
<path d="M10.4957 1.99268H17.8302L23.1899 11.4269L16.3495 11.4266L6.26464 29.1513L0.622375 19.1461L10.4957 1.99268Z" fill="#87D6BE"/>
<path fill-rule="evenodd" clip-rule="evenodd" d="M19.844 0.88855L19.8221 0.850098H10.7488L0 19.5247L7.37851 32.6086L7.38756 32.5928L10.1769 37.4891L31.5092 37.5858L39.0006 24.5678H38.9508L41.7182 19.71L31.1347 0.938749L19.844 0.88855ZM26.8626 13.3422H26.9192L21.5857 3.95432L29.3793 3.98896L38.2385 19.7021L35.4656 24.5698L28.1986 24.5737L30.7323 20.1264L26.8626 13.3422ZM17.9963 3.90804L21.633 10.2841L16.5977 10.284L7.97708 25.435L7.38905 26.4644L3.48426 19.5402L12.482 3.90804H17.9963ZM14.4997 20.0928L18.3407 13.342L23.3774 13.3422L27.2476 20.1273L24.7133 24.5757L17.0557 24.5799L14.4997 20.0928ZM9.12854 29.5328L10.5898 26.9646L12.7629 23.1604L15.314 27.6388L22.9705 27.6346L22.9581 27.6563L33.7229 27.6692L29.7804 34.5201L11.9235 34.439L9.12854 29.5328Z" fill="#333237"/>
<path d="M66.7619 21.0581C67.1689 21.0581 67.3724 21.331 67.3724 21.8769C67.3724 22.9036 66.4712 23.417 64.6687 23.417C64.3198 23.417 63.8183 23.3585 63.1642 23.2416C63.3532 24.0473 63.5058 24.9441 63.6221 25.9319C63.7529 26.9066 63.8183 27.7124 63.8183 28.3492C63.8183 29.7529 63.5639 30.8251 63.0552 31.5659C62.5464 32.3067 61.8777 32.6771 61.0492 32.6771C60.0026 32.6771 59.254 32.0143 58.8034 30.6886C58.3673 29.363 58.1492 27.3615 58.1492 24.6842C58.1492 22.1888 58.4472 19.661 59.0432 17.1006C59.6537 14.5273 60.4823 12.4023 61.5289 10.7258C62.59 9.03619 63.7529 8.19141 65.0175 8.19141C65.7007 8.19141 66.2313 8.46434 66.6092 9.0102C67.0017 9.55606 67.198 10.2904 67.198 11.2131C67.198 14.2674 65.1556 17.5945 61.071 21.1946C60.9256 22.4683 60.8529 23.586 60.8529 24.5477C60.8529 25.8864 60.9038 27.2575 61.0056 28.6612C61.1073 30.0778 61.2745 30.7861 61.5071 30.7861C61.9432 30.7861 62.1612 30.1103 62.1612 28.7586C62.1612 27.7449 62.0812 26.7637 61.9214 25.8149C61.776 24.8661 61.5725 23.8654 61.3108 22.8127C61.2963 22.6437 61.3544 22.4293 61.4853 22.1693C61.6306 21.9094 61.8051 21.682 62.0086 21.487C62.2121 21.2921 62.3938 21.1946 62.5537 21.1946C62.8444 21.1946 63.1933 21.2076 63.6003 21.2336C63.7311 21.2466 63.8837 21.2531 64.0582 21.2531C64.6396 21.2531 65.2865 21.2076 65.9987 21.1166C66.115 21.1036 66.2386 21.0906 66.3694 21.0776C66.5002 21.0646 66.631 21.0581 66.7619 21.0581ZM64.5597 10.1214C64.298 10.1214 63.9709 10.5178 63.5785 11.3106C63.2005 12.1034 62.8226 13.1561 62.4447 14.4688C62.0667 15.7685 61.7396 17.1461 61.4635 18.6017C62.6264 17.419 63.5203 16.1909 64.1454 14.9172C64.7704 13.6305 65.0902 12.4283 65.1048 11.3106C65.1048 10.5178 64.9231 10.1214 64.5597 10.1214Z" fill="#39393D"/>
<path d="M76.8477 20.5317C77.0366 20.5317 77.182 20.6162 77.2837 20.7852C77.3855 20.9541 77.4364 21.1686 77.4364 21.4285C77.4364 22.0524 77.2256 22.4228 76.8041 22.5397C75.9319 22.8127 74.9725 22.9686 73.9259 23.0076C73.6497 24.0993 73.1046 24.9766 72.2906 25.6394C71.4766 26.2893 70.5535 26.6142 69.5215 26.6142C68.6493 26.6142 67.9007 26.4257 67.2756 26.0488C66.6651 25.6719 66.2 25.1716 65.8802 24.5477C65.5604 23.9239 65.4005 23.2481 65.4005 22.5202C65.4005 21.5325 65.6112 20.6552 66.0328 19.8884C66.4543 19.1086 67.0358 18.5043 67.7771 18.0754C68.5185 17.6335 69.3398 17.4125 70.241 17.4125C71.3457 17.4125 72.2324 17.757 72.9011 18.4458C73.5843 19.1216 73.984 19.9599 74.1003 20.9606C74.7835 20.9216 75.5976 20.7917 76.5424 20.5707C76.6587 20.5447 76.7604 20.5317 76.8477 20.5317ZM69.6959 24.5477C70.1611 24.5477 70.5608 24.3788 70.8951 24.0409C71.244 23.7029 71.4766 23.2156 71.5929 22.5787C71.1422 22.3058 70.7934 21.9484 70.5463 21.5065C70.3137 21.0646 70.1974 20.5967 70.1974 20.1029C70.1974 19.8949 70.2192 19.687 70.2628 19.479H70.1538C69.5723 19.479 69.0854 19.7325 68.6929 20.2393C68.315 20.7332 68.126 21.435 68.126 22.3448C68.126 23.0596 68.2786 23.6055 68.5839 23.9824C68.9037 24.3593 69.2743 24.5477 69.6959 24.5477Z" fill="#39393D"/>
<path d="M77.1131 26.6142C76.5607 26.6142 76.1682 26.3543 75.9356 25.8344C75.7176 25.3145 75.6086 24.4827 75.6086 23.339C75.6086 21.6495 75.8775 20.0444 76.4153 18.5238C76.5461 18.1469 76.7569 17.8739 77.0476 17.705C77.3529 17.523 77.7745 17.432 78.3123 17.432C78.603 17.432 78.8065 17.4645 78.9228 17.5295C79.0391 17.5945 79.0972 17.718 79.0972 17.8999C79.0972 18.1079 78.9882 18.5757 78.7702 19.3036C78.6248 19.8234 78.5085 20.2783 78.4213 20.6682C78.3341 21.0581 78.2614 21.539 78.2033 22.1108C78.683 20.9931 79.2208 20.0834 79.8168 19.3815C80.4128 18.6797 80.9942 18.1794 81.5611 17.8804C82.1425 17.5815 82.6731 17.432 83.1528 17.432C84.0977 17.432 84.5701 17.8544 84.5701 18.6992C84.5701 18.8682 84.5047 19.2776 84.3738 19.9274C84.2576 20.4473 84.1994 20.7722 84.1994 20.9022C84.1994 21.357 84.3811 21.5845 84.7445 21.5845C85.1515 21.5845 85.6748 21.2986 86.3144 20.7267C86.5034 20.5577 86.6996 20.4733 86.9031 20.4733C87.0921 20.4733 87.2375 20.5512 87.3392 20.7072C87.4555 20.8502 87.5136 21.0451 87.5136 21.2921C87.5136 21.7729 87.3683 22.1498 87.0776 22.4228C86.6705 22.7997 86.1909 23.1246 85.6385 23.3975C85.1006 23.6574 84.5265 23.7874 83.916 23.7874C83.1455 23.7874 82.5568 23.612 82.1498 23.2611C81.7573 22.9101 81.5611 22.4358 81.5611 21.8379C81.5611 21.643 81.5829 21.448 81.6265 21.2531C81.6556 20.9931 81.6701 20.8177 81.6701 20.7267C81.6701 20.5188 81.5902 20.4148 81.4303 20.4148C81.2122 20.4148 80.9215 20.6357 80.5581 21.0776C80.2092 21.5065 79.8604 22.0784 79.5115 22.7932C79.1626 23.508 78.8792 24.2618 78.6612 25.0546C78.5013 25.6654 78.3123 26.0813 78.0942 26.3023C77.8907 26.5102 77.5637 26.6142 77.1131 26.6142Z" fill="#39393D"/>
<path d="M105.831 22.1693C106.02 22.1693 106.165 22.2473 106.267 22.4033C106.383 22.5592 106.441 22.7737 106.441 23.0466C106.441 23.5535 106.303 23.9564 106.027 24.2553C105.329 25.0091 104.624 25.594 103.912 26.0098C103.2 26.4127 102.357 26.6142 101.383 26.6142C100.438 26.6142 99.6312 26.3868 98.9625 25.9319C98.3084 25.477 97.6833 24.6972 97.0874 23.5925C96.6077 22.7087 96.2297 22.0589 95.9535 21.643C95.6774 21.2141 95.4012 20.9087 95.125 20.7267C94.8633 20.5447 94.5363 20.4343 94.1438 20.3953C94.0857 20.6682 93.9185 21.526 93.6423 22.9686C93.526 23.6185 93.4533 24.0149 93.4243 24.1578C93.2789 24.9506 92.9882 25.5615 92.5521 25.9904C92.116 26.4062 91.4546 26.6142 90.5679 26.6142C89.594 26.6142 88.7291 26.3608 87.9732 25.8539C87.2319 25.334 86.6577 24.6192 86.2507 23.7094C85.8437 22.7867 85.6402 21.7404 85.6402 20.5707C85.6402 18.3873 86.0617 16.5028 86.9048 14.9172C87.7625 13.3316 88.9544 12.1229 90.4807 11.2911C92.0215 10.4463 93.7949 10.0239 95.8009 10.0239C97.1964 10.0239 98.3665 10.2124 99.3114 10.5893C100.256 10.9662 100.954 11.4861 101.405 12.1489C101.87 12.8117 102.102 13.559 102.102 14.3908C102.102 15.1186 101.906 15.8335 101.514 16.5353C101.136 17.2241 100.561 17.8349 99.7911 18.3678C99.0207 18.9007 98.0831 19.2971 96.9783 19.557C97.6761 19.726 98.2139 19.9989 98.5919 20.3758C98.9698 20.7527 99.3477 21.3051 99.7257 22.0329C100.133 22.8127 100.532 23.3845 100.925 23.7484C101.332 24.1123 101.797 24.2943 102.32 24.2943C102.786 24.2943 103.229 24.1578 103.65 23.8849C104.072 23.599 104.603 23.1181 105.242 22.4423C105.417 22.2603 105.613 22.1693 105.831 22.1693ZM91.1348 20.3758C90.6406 20.3758 90.299 20.2718 90.11 20.0639C89.9356 19.8559 89.8484 19.622 89.8484 19.362C89.8484 19.0501 89.9574 18.8032 90.1754 18.6212C90.408 18.4393 90.6697 18.3483 90.9604 18.3483H91.5055C91.7381 17.0746 91.9561 15.9764 92.1596 15.0537C92.3486 14.2089 92.9591 13.7865 93.9912 13.7865C94.8197 13.7865 95.234 14.1179 95.234 14.7807C95.234 14.9237 95.2267 15.0342 95.2122 15.1121L94.5581 18.3483C95.343 18.3093 96.0553 18.1404 96.6949 17.8414C97.349 17.5425 97.865 17.1266 98.243 16.5938C98.6355 16.0609 98.8317 15.4565 98.8317 14.7807C98.8317 13.9619 98.5192 13.3186 97.8941 12.8507C97.2691 12.3828 96.3533 12.1489 95.1468 12.1489C93.7223 12.1489 92.4722 12.4673 91.3965 13.1041C90.3353 13.728 89.5068 14.6638 88.9108 15.9114C88.3148 17.1461 88.0168 18.6537 88.0168 20.4343C88.0168 21.2661 88.1113 21.9809 88.3003 22.5787C88.4893 23.1766 88.7218 23.625 88.998 23.9239C89.2742 24.2228 89.5359 24.3723 89.783 24.3723C89.9719 24.3723 90.1246 24.2878 90.2409 24.1188C90.3717 23.9499 90.4734 23.6769 90.5461 23.3L91.1348 20.3758Z" fill="#39393D"/>
<path d="M113.971 22.1693C114.16 22.1693 114.306 22.2473 114.408 22.4033C114.524 22.5592 114.582 22.7737 114.582 23.0466C114.582 23.5665 114.444 23.9694 114.168 24.2553C113.63 24.8401 112.867 25.3795 111.878 25.8734C110.904 26.3673 109.858 26.6142 108.738 26.6142C107.212 26.6142 106.027 26.2438 105.184 25.503C104.341 24.7622 103.92 23.7484 103.92 22.4618C103.92 21.565 104.131 20.7332 104.552 19.9664C104.974 19.1866 105.555 18.5693 106.296 18.1144C107.052 17.6595 107.903 17.432 108.847 17.432C109.691 17.432 110.366 17.6595 110.875 18.1144C111.384 18.5563 111.638 19.1606 111.638 19.9274C111.638 20.8242 111.275 21.5975 110.548 22.2473C109.836 22.8841 108.622 23.391 106.907 23.7679C107.27 24.3658 107.961 24.6647 108.978 24.6647C109.632 24.6647 110.374 24.4632 111.202 24.0603C112.045 23.6445 112.772 23.1051 113.383 22.4423C113.557 22.2603 113.753 22.1693 113.971 22.1693ZM108.477 19.3426C107.939 19.3426 107.481 19.622 107.103 20.1808C106.74 20.7397 106.558 21.4155 106.558 22.2083V22.2473C107.416 22.0654 108.092 21.7924 108.586 21.4285C109.08 21.0646 109.327 20.6422 109.327 20.1613C109.327 19.9144 109.247 19.7195 109.087 19.5765C108.942 19.4205 108.738 19.3426 108.477 19.3426Z" fill="#39393D"/>
<path d="M123.706 20.5902C123.75 20.5772 123.822 20.5707 123.924 20.5707C124.142 20.5707 124.309 20.6357 124.426 20.7657C124.542 20.8957 124.6 21.0711 124.6 21.2921C124.6 21.695 124.513 22.0134 124.338 22.2473C124.164 22.4683 123.902 22.6307 123.554 22.7347C122.885 22.9296 122.173 23.0271 121.417 23.0271C120.777 23.0271 120.174 22.9491 119.607 22.7932C119.185 23.404 118.72 24.0344 118.212 24.6842C117.63 25.425 117.129 25.9319 116.707 26.2048C116.285 26.4777 115.806 26.6142 115.268 26.6142C114.672 26.6142 114.2 26.4062 113.851 25.9904C113.516 25.5745 113.306 24.9181 113.218 24.0214C113.044 22.2018 112.957 20.6097 112.957 19.2451V18.5628C112.971 18.1339 113.102 17.8349 113.349 17.666C113.596 17.497 113.967 17.4125 114.461 17.4125C114.839 17.4125 115.115 17.4905 115.29 17.6465C115.479 17.7895 115.573 18.0364 115.573 18.3873C115.573 19.8819 115.675 21.8249 115.878 24.2163C116.751 23.0596 117.405 22.1368 117.841 21.448C117.623 21.0711 117.514 20.6227 117.514 20.1029C117.514 19.661 117.623 19.2321 117.841 18.8162C118.059 18.4003 118.357 18.0624 118.735 17.8024C119.113 17.5425 119.542 17.4125 120.021 17.4125C120.443 17.4125 120.784 17.549 121.046 17.8219C121.308 18.0819 121.439 18.4653 121.439 18.9721C121.439 19.557 121.264 20.2263 120.915 20.9801C121.468 20.9541 122.202 20.8567 123.117 20.6877L123.706 20.5902Z" fill="#39393D"/>
<path d="M125.564 16.1454C124.954 16.1454 124.496 16.0219 124.191 15.775C123.885 15.515 123.733 15.1576 123.733 14.7027C123.733 14.2479 123.929 13.871 124.321 13.572C124.728 13.2601 125.23 13.1041 125.826 13.1041C126.364 13.1041 126.8 13.2211 127.134 13.4551C127.469 13.689 127.636 14.0204 127.636 14.4493C127.636 14.9692 127.447 15.3851 127.069 15.697C126.691 15.9959 126.189 16.1454 125.564 16.1454ZM125.39 26.6142C124.445 26.6142 123.755 26.3153 123.318 25.7174C122.897 25.1196 122.686 24.3268 122.686 23.339C122.686 22.7542 122.766 22.0069 122.926 21.0971C123.1 20.1743 123.318 19.3166 123.58 18.5238C123.711 18.1079 123.885 17.8219 124.103 17.666C124.321 17.51 124.67 17.432 125.15 17.432C125.891 17.432 126.262 17.653 126.262 18.0949C126.262 18.4198 126.124 19.1736 125.848 20.3563C125.499 21.7859 125.324 22.7542 125.324 23.2611C125.324 23.651 125.383 23.9499 125.499 24.1578C125.615 24.3658 125.811 24.4697 126.088 24.4697C126.349 24.4697 126.676 24.3073 127.069 23.9824C127.461 23.6574 127.985 23.1441 128.639 22.4423C128.813 22.2603 129.009 22.1693 129.227 22.1693C129.416 22.1693 129.562 22.2473 129.663 22.4033C129.78 22.5592 129.838 22.7737 129.838 23.0466C129.838 23.5665 129.7 23.9694 129.424 24.2553C127.985 25.8279 126.64 26.6142 125.39 26.6142Z" fill="#39393D"/>
<path d="M137.798 22.1693C137.987 22.1693 138.133 22.2473 138.235 22.4033C138.351 22.5592 138.409 22.7737 138.409 23.0466C138.409 23.5665 138.271 23.9694 137.995 24.2553C137.457 24.8401 136.694 25.3795 135.705 25.8734C134.731 26.3673 133.685 26.6142 132.565 26.6142C131.039 26.6142 129.854 26.2438 129.011 25.503C128.168 24.7622 127.747 23.7484 127.747 22.4618C127.747 21.565 127.958 20.7332 128.379 19.9664C128.801 19.1866 129.382 18.5693 130.123 18.1144C130.879 17.6595 131.73 17.432 132.674 17.432C133.518 17.432 134.193 17.6595 134.702 18.1144C135.211 18.5563 135.465 19.1606 135.465 19.9274C135.465 20.8242 135.102 21.5975 134.375 22.2473C133.663 22.8841 132.449 23.391 130.734 23.7679C131.097 24.3658 131.788 24.6647 132.805 24.6647C133.459 24.6647 134.201 24.4632 135.029 24.0603C135.872 23.6445 136.599 23.1051 137.21 22.4423C137.384 22.2603 137.58 22.1693 137.798 22.1693ZM132.304 19.3426C131.766 19.3426 131.308 19.622 130.93 20.1808C130.567 20.7397 130.385 21.4155 130.385 22.2083V22.2473C131.243 22.0654 131.919 21.7924 132.413 21.4285C132.907 21.0646 133.154 20.6422 133.154 20.1613C133.154 19.9144 133.074 19.7195 132.914 19.5765C132.769 19.4205 132.565 19.3426 132.304 19.3426Z" fill="#39393D"/>
<path d="M149.801 17.4125C150.6 17.4125 151 17.64 151 18.0949C151 18.2508 150.942 18.4653 150.826 18.7382C149.648 21.1946 148.536 23.1766 147.49 24.6842C146.966 25.425 146.494 25.9319 146.072 26.2048C145.651 26.4777 145.171 26.6142 144.633 26.6142C144.052 26.6142 143.616 26.4127 143.325 26.0098C143.049 25.6069 142.874 24.9441 142.802 24.0214C142.773 23.6834 142.744 23.1766 142.714 22.5007C142.264 23.6185 141.85 24.4762 141.472 25.0741C141.108 25.6589 140.745 26.0618 140.381 26.2828C140.033 26.5037 139.611 26.6142 139.117 26.6142C138.521 26.6142 138.048 26.4062 137.699 25.9904C137.365 25.5745 137.154 24.9181 137.067 24.0214C136.893 22.2018 136.806 20.6097 136.806 19.2451V18.5628C136.82 18.1209 136.944 17.8219 137.176 17.666C137.409 17.497 137.787 17.4125 138.31 17.4125C138.688 17.4125 138.964 17.4905 139.139 17.6465C139.328 17.7895 139.422 18.0364 139.422 18.3873C139.422 19.8819 139.524 21.8249 139.727 24.2163C140.207 23.3065 140.65 22.4358 141.057 21.604C141.464 20.7722 141.937 19.7065 142.475 18.4068C142.634 18.0169 142.823 17.757 143.041 17.627C143.274 17.484 143.543 17.4125 143.848 17.4125C144.255 17.4125 144.561 17.4905 144.764 17.6465C144.968 17.7895 145.069 18.0364 145.069 18.3873V21.409C145.069 22.7087 145.077 23.6445 145.091 24.2163C145.76 23.1766 146.305 22.2733 146.726 21.5065C147.162 20.7397 147.649 19.7065 148.187 18.4068C148.347 18.0169 148.558 17.757 148.82 17.627C149.081 17.484 149.408 17.4125 149.801 17.4125Z" fill="#39393D"/>
</svg>
