<svg width="70" height="19" viewBox="0 0 70 19" fill="none" xmlns="http://www.w3.org/2000/svg">
<path d="M11.6 14V5L11.996 2.12L11.951 2.111L11.042 4.82L7.307 12.83H6.686L3.365 5.72L2.177 2.111L2.123 2.12L2.6 5.891V14H0.8V2.39L0.548 0.499999L2.654 0.319999L6.605 8.78L7.1 11.12L7.595 8.78L11.456 0.499999L13.49 0.319999V14H11.6ZM20.625 10.724L23.046 4.1L24.666 3.947L20.94 14.153C20.754 14.657 20.55 15.158 20.328 15.656C20.112 16.154 19.866 16.598 19.59 16.988C19.314 17.384 19.008 17.705 18.672 17.951C18.342 18.197 17.973 18.32 17.565 18.32C17.259 18.32 16.959 18.257 16.665 18.131C16.371 18.011 16.101 17.843 15.855 17.627L16.512 16.664C16.614 16.736 16.731 16.802 16.863 16.862C16.995 16.922 17.133 16.952 17.277 16.952C17.475 16.952 17.667 16.874 17.853 16.718C18.039 16.568 18.216 16.373 18.384 16.133C18.558 15.893 18.717 15.623 18.861 15.323C19.011 15.023 19.146 14.723 19.266 14.423L15.513 4.1L17.223 3.947L19.689 10.724L20.157 12.812L20.625 10.724ZM34.9065 12.56H40.7565L40.5765 14H32.9265L33.1065 12.2V2.39L32.8365 0.499999L34.9965 0.319999V10.94L34.9065 12.56ZM44.803 14H43.093V4.505L44.803 4.325V14ZM43.039 0.499999H44.857V2.3H43.039V0.499999ZM52.6385 5.729C52.5305 5.675 52.4015 5.621 52.2515 5.567C52.1015 5.513 51.9455 5.465 51.7835 5.423C51.6215 5.381 51.4565 5.348 51.2885 5.324C51.1265 5.3 50.9705 5.288 50.8205 5.288C50.1845 5.288 49.7345 5.384 49.4705 5.576C49.2065 5.762 49.0745 6.044 49.0745 6.422C49.0745 6.674 49.1615 6.884 49.3355 7.052C49.5095 7.214 49.7345 7.361 50.0105 7.493C50.2865 7.625 50.5925 7.751 50.9285 7.871C51.2705 7.985 51.6035 8.123 51.9275 8.285C52.1615 8.399 52.3985 8.534 52.6385 8.69C52.8785 8.846 53.0945 9.029 53.2865 9.239C53.4785 9.449 53.6345 9.686 53.7545 9.95C53.8745 10.214 53.9345 10.511 53.9345 10.841C53.9345 11.447 53.8325 11.96 53.6285 12.38C53.4245 12.8 53.1455 13.142 52.7915 13.406C52.4435 13.664 52.0325 13.853 51.5585 13.973C51.0905 14.093 50.5895 14.153 50.0555 14.153C49.8515 14.153 49.6205 14.132 49.3625 14.09C49.1045 14.054 48.8465 14.003 48.5885 13.937C48.3305 13.865 48.0845 13.781 47.8505 13.685C47.6165 13.589 47.4215 13.487 47.2655 13.379L47.8595 12.191C48.0035 12.263 48.1745 12.332 48.3725 12.398C48.5705 12.458 48.7745 12.512 48.9845 12.56C49.1945 12.608 49.4015 12.647 49.6055 12.677C49.8155 12.701 50.0015 12.713 50.1635 12.713C50.4395 12.713 50.7035 12.686 50.9555 12.632C51.2135 12.572 51.4385 12.479 51.6305 12.353C51.8285 12.227 51.9845 12.065 52.0985 11.867C52.2185 11.663 52.2785 11.414 52.2785 11.12C52.2785 10.898 52.2305 10.703 52.1345 10.535C52.0445 10.367 51.9185 10.22 51.7565 10.094C51.6005 9.962 51.4175 9.842 51.2075 9.734C50.9975 9.626 50.7755 9.524 50.5415 9.428C50.3075 9.326 50.0675 9.224 49.8215 9.122C49.5755 9.014 49.3415 8.897 49.1195 8.771C48.9095 8.651 48.7055 8.519 48.5075 8.375C48.3155 8.231 48.1445 8.069 47.9945 7.889C47.8445 7.709 47.7245 7.508 47.6345 7.286C47.5445 7.058 47.4995 6.8 47.4995 6.512C47.4995 6.056 47.5805 5.666 47.7425 5.342C47.9045 5.012 48.1325 4.745 48.4265 4.541C48.7205 4.337 49.0745 4.187 49.4885 4.091C49.9025 3.995 50.3585 3.947 50.8565 3.947C51.0845 3.947 51.3095 3.965 51.5315 4.001C51.7535 4.037 51.9665 4.085 52.1705 4.145C52.3745 4.199 52.5605 4.265 52.7285 4.343C52.8965 4.421 53.0405 4.499 53.1605 4.577L52.6385 5.729ZM58.303 10.616C58.303 11.012 58.324 11.345 58.366 11.615C58.414 11.879 58.48 12.095 58.564 12.263C58.654 12.425 58.762 12.542 58.888 12.614C59.02 12.68 59.17 12.713 59.338 12.713C59.47 12.713 59.59 12.707 59.698 12.695C59.806 12.677 59.899 12.656 59.977 12.632C60.067 12.608 60.148 12.581 60.22 12.551L60.841 13.64C60.793 13.688 60.715 13.742 60.607 13.802C60.505 13.856 60.382 13.91 60.238 13.964C60.094 14.018 59.929 14.063 59.743 14.099C59.563 14.135 59.368 14.153 59.158 14.153C58.618 14.153 58.18 14.054 57.844 13.856C57.508 13.658 57.247 13.388 57.061 13.046C56.875 12.704 56.749 12.308 56.683 11.858C56.623 11.402 56.593 10.916 56.593 10.4V5.54H55.243V4.1H56.593V2.219L58.258 1.22V4.1H61.318L61.138 5.54H58.303V10.616ZM67.949 5.729C67.841 5.675 67.712 5.621 67.562 5.567C67.412 5.513 67.256 5.465 67.094 5.423C66.932 5.381 66.767 5.348 66.599 5.324C66.437 5.3 66.281 5.288 66.131 5.288C65.495 5.288 65.045 5.384 64.781 5.576C64.517 5.762 64.385 6.044 64.385 6.422C64.385 6.674 64.472 6.884 64.646 7.052C64.82 7.214 65.045 7.361 65.321 7.493C65.597 7.625 65.903 7.751 66.239 7.871C66.581 7.985 66.914 8.123 67.238 8.285C67.472 8.399 67.709 8.534 67.949 8.69C68.189 8.846 68.405 9.029 68.597 9.239C68.789 9.449 68.945 9.686 69.065 9.95C69.185 10.214 69.245 10.511 69.245 10.841C69.245 11.447 69.143 11.96 68.939 12.38C68.735 12.8 68.456 13.142 68.102 13.406C67.754 13.664 67.343 13.853 66.869 13.973C66.401 14.093 65.9 14.153 65.366 14.153C65.162 14.153 64.931 14.132 64.673 14.09C64.415 14.054 64.157 14.003 63.899 13.937C63.641 13.865 63.395 13.781 63.161 13.685C62.927 13.589 62.732 13.487 62.576 13.379L63.17 12.191C63.314 12.263 63.485 12.332 63.683 12.398C63.881 12.458 64.085 12.512 64.295 12.56C64.505 12.608 64.712 12.647 64.916 12.677C65.126 12.701 65.312 12.713 65.474 12.713C65.75 12.713 66.014 12.686 66.266 12.632C66.524 12.572 66.749 12.479 66.941 12.353C67.139 12.227 67.295 12.065 67.409 11.867C67.529 11.663 67.589 11.414 67.589 11.12C67.589 10.898 67.541 10.703 67.445 10.535C67.355 10.367 67.229 10.22 67.067 10.094C66.911 9.962 66.728 9.842 66.518 9.734C66.308 9.626 66.086 9.524 65.852 9.428C65.618 9.326 65.378 9.224 65.132 9.122C64.886 9.014 64.652 8.897 64.43 8.771C64.22 8.651 64.016 8.519 63.818 8.375C63.626 8.231 63.455 8.069 63.305 7.889C63.155 7.709 63.035 7.508 62.945 7.286C62.855 7.058 62.81 6.8 62.81 6.512C62.81 6.056 62.891 5.666 63.053 5.342C63.215 5.012 63.443 4.745 63.737 4.541C64.031 4.337 64.385 4.187 64.799 4.091C65.213 3.995 65.669 3.947 66.167 3.947C66.395 3.947 66.62 3.965 66.842 4.001C67.064 4.037 67.277 4.085 67.481 4.145C67.685 4.199 67.871 4.265 68.039 4.343C68.207 4.421 68.351 4.499 68.471 4.577L67.949 5.729Z" fill="#F5F5F5"/>
</svg>
