<svg width="31" height="32" viewBox="0 0 31 32" fill="none" xmlns="http://www.w3.org/2000/svg">
<path d="M8.49211 19.7931C8.6373 18.553 9.13033 17.8586 10.0594 17.1469C11.3888 16.1829 13.0494 16.7282 13.0494 16.7282V13.4933C13.4531 13.4826 13.8569 13.5073 14.2562 13.567V17.73C14.2562 17.73 12.5962 17.1847 11.2668 18.1492C10.3382 18.8605 9.84417 19.5553 9.69948 20.7955C9.69495 21.4689 9.81745 22.3491 10.3816 23.1103C10.2421 23.0365 10.0999 22.9524 9.95507 22.858C8.71241 21.9972 8.48606 20.7058 8.49211 19.7931ZM21.1128 7.51191C20.1983 6.47813 19.8525 5.43439 19.7275 4.70117H20.8779C20.8779 4.70117 20.6485 6.62368 22.3202 8.51428L22.3434 8.5397C21.8928 8.24734 21.4797 7.90224 21.1128 7.51191ZM26.6546 10.4428V14.522C26.6546 14.522 25.1866 14.4627 24.1003 14.1776C22.5833 13.7789 21.6084 13.1673 21.6084 13.1673C21.6084 13.1673 20.9349 12.7311 20.8804 12.7007V21.1245C20.8804 21.5935 20.7559 22.7648 20.3763 23.7418C19.8807 25.0198 19.116 25.8587 18.9753 26.0302C18.9753 26.0302 18.0452 27.1641 16.4043 27.9277C14.9252 28.6166 13.6266 28.5991 13.2384 28.6166C13.2384 28.6166 10.9936 28.7083 8.97355 27.354C8.53673 27.0555 8.12898 26.7175 7.75558 26.3442L7.76567 26.3517C9.78619 27.7059 12.0305 27.6142 12.0305 27.6142C12.4192 27.5968 13.7178 27.6142 15.1964 26.9254C16.8358 26.1617 17.7675 25.0278 17.7675 25.0278C17.9066 24.8563 18.6749 24.0174 19.1684 22.7389C19.547 21.7625 19.6725 20.5906 19.6725 20.1216V11.6988C19.727 11.7298 20.4 12.1659 20.4 12.1659C20.4 12.1659 21.3755 12.778 22.8924 13.1762C23.9793 13.4614 25.4468 13.5207 25.4468 13.5207V10.3241C25.9489 10.4403 26.3769 10.4717 26.6546 10.4428Z" fill="#EE1D52"/>
<path d="M25.4473 10.3241V13.5197C25.4473 13.5197 23.9798 13.4604 22.8929 13.1752C21.376 12.7765 20.4005 12.1649 20.4005 12.1649C20.4005 12.1649 19.7275 11.7288 19.6731 11.6979V20.1226C19.6731 20.5916 19.5486 21.7635 19.1689 22.7399C18.6734 24.0184 17.9086 24.8573 17.768 25.0288C17.768 25.0288 16.8374 26.1627 15.197 26.9264C13.7184 27.6152 12.4198 27.5978 12.0311 27.6152C12.0311 27.6152 9.78672 27.7069 7.76619 26.3526L7.75611 26.3452C7.54279 26.1321 7.34199 25.9071 7.15469 25.6713C6.50992 24.8603 6.11469 23.9013 6.01538 23.6276C6.0152 23.6265 6.0152 23.6253 6.01538 23.6242C5.85557 23.1486 5.51982 22.0067 5.5657 20.9007C5.64686 18.9492 6.3123 17.7515 6.48824 17.4514C6.9542 16.6331 7.56024 15.901 8.27939 15.2877C8.914 14.7584 9.6333 14.3372 10.4078 14.0415C11.2451 13.6944 12.1416 13.5083 13.0494 13.4933V16.7282C13.0494 16.7282 11.3888 16.1849 10.06 17.1469C9.13085 17.8586 8.63782 18.553 8.49263 19.7931C8.48659 20.7058 8.71294 21.9972 9.95459 22.8585C10.0994 22.9533 10.2416 23.0373 10.3811 23.1108C10.598 23.4016 10.862 23.6551 11.1625 23.8609C12.3754 24.6529 13.3917 24.7083 14.6913 24.1939C15.5579 23.85 16.2103 23.0749 16.5127 22.216C16.7028 21.6797 16.7003 21.1399 16.7003 20.5816V4.70117H19.725C19.85 5.43439 20.1958 6.47813 21.1103 7.51191C21.4772 7.90224 21.8903 8.24734 22.3409 8.5397C22.474 8.68176 23.1545 9.38407 24.0282 9.81522C24.4799 10.0381 24.9561 10.2088 25.4473 10.3241V10.3241Z" fill="black"/>
<path d="M4.81152 22.6343V22.6368L4.88658 22.8466C4.87796 22.8222 4.85006 22.7479 4.81152 22.6343Z" fill="#69C9D0"/>
<path d="M10.4078 14.0415C9.63332 14.3372 8.91401 14.7583 8.27941 15.2876C7.56003 15.9024 6.95414 16.636 6.48877 17.4559C6.31283 17.7549 5.64738 18.9537 5.56622 20.9051C5.52035 22.0112 5.85609 23.1531 6.0159 23.6286C6.01573 23.6298 6.01573 23.631 6.0159 23.6321C6.11672 23.9033 6.51044 24.8623 7.15522 25.6757C7.34251 25.9115 7.54331 26.1365 7.75663 26.3496C7.07314 25.8822 6.46357 25.3172 5.94784 24.6729C5.30861 23.8689 4.91439 22.9198 4.81155 22.6397C4.81143 22.6377 4.81143 22.6357 4.81155 22.6337V22.6302C4.65124 22.1552 4.31448 21.0128 4.36137 19.9052C4.44253 17.9538 5.10797 16.7561 5.28391 16.456C5.74915 15.6361 6.35506 14.9024 7.07456 14.2877C7.70903 13.7583 8.42837 13.3371 9.20296 13.0416C9.68612 12.8434 10.1894 12.6972 10.7042 12.6055C11.4801 12.4716 12.2724 12.46 13.0519 12.5711V13.4932C12.1433 13.5079 11.2459 13.694 10.4078 14.0415Z" fill="#69C9D0"/>
<path d="M19.7275 4.70111H16.7028V20.5821C16.7028 21.1403 16.7028 21.6787 16.5152 22.2165C16.2097 23.0748 15.5599 23.8499 14.6938 24.1938C13.3937 24.7102 12.3774 24.6529 11.165 23.8609C10.864 23.656 10.5993 23.4034 10.3816 23.1132C11.4145 23.658 12.3391 23.6485 13.4844 23.1939C14.35 22.85 15.0008 22.0749 15.3053 21.2161C15.4959 20.6798 15.4934 20.14 15.4934 19.5822V3.69824H19.67C19.67 3.69824 19.6231 4.09301 19.7275 4.70111ZM25.4473 9.44034V10.3241C24.9569 10.2086 24.4816 10.0379 24.0307 9.81517C23.157 9.38401 22.4765 8.6817 22.3434 8.53964C22.4978 8.6399 22.6581 8.7311 22.8233 8.81279C23.8855 9.33716 24.9315 9.49367 25.4473 9.44034Z" fill="#69C9D0"/>
</svg>
